<mxfile host="Electron" agent="Mozilla/5.0 (Macintosh; Intel Mac OS X 10_15_7) AppleWebKit/537.36 (KHTML, like Gecko) draw.io/25.0.2 Chrome/128.0.6613.186 Electron/32.2.5 Safari/537.36" version="25.0.2">
  <diagram name="Page-1" id="XXbj75ttl687VSmbsbiG">
    <mxGraphModel dx="3225" dy="-570" grid="0" gridSize="10" guides="1" tooltips="1" connect="1" arrows="1" fold="1" page="0" pageScale="1" pageWidth="850" pageHeight="1100" math="0" shadow="0">
      <root>
        <mxCell id="0" />
        <mxCell id="1" parent="0" />
        <mxCell id="N3QpHehD2lE0CQWggUtW-3" value="" style="shape=image;verticalLabelPosition=bottom;labelBackgroundColor=default;verticalAlign=top;aspect=fixed;imageAspect=0;image=data:image/png,iVBORw0KGgoAAAANSUhEUgAABNIAAAB9CAYAAABnCk77AAAKCmlDQ1BJQ0MgUHJvZmlsZQAASImVlgdUFOcWx7+Z7Y2yuywdlt6ktwUEls5SpFdRWXbpsMJSRMVOMAIRRUQElFBCVTAaisSCiGIhCChgD0gQUGKwACoqGeTFJC/nvXfePeee+zt3vvl/d+abc+YPACmVm5SUAIsBkChIFfq62DODQ0KZuGkAASqS4kCRy0tJsvP29gBI/FH/HvPDyEokbusua/3z+n8NcX5kCg8AyBthAT+Fl4hwJ8L2vCRhKgAwGmGVTalJy6yJMF2IDIjw6mWOXuHle+kRK8z/vMbf1wHhDADwZC5XGA0AMQvpM9N50YgOsRphAwE/VoDwHYRtEhM3IveR6AhrImuSEF7WZ0X8RSf6b5oRXzS53OgvvPIsn4MerBfI8eN4rWE6cBNiI4Tc1Ej+//lq/nckJqT9sd/yCZAjBQF+SFVHUg4EAz0QCDjAD0kvsAYwgQPgggQQCyKAEKFUEAmQkVIjM1KXBRw2Jm0WxkbHpDLtkFOMZHIEPL1VTCMDI1MAlr+JlW1eMz7vBDFu/NnbZg8A+yTSPPRnLwh5lyeqAJCp/rOnvAMA6ikAWud4acL0ld7y8QIMIAJRQAfSQAGoAE2gC4yAGbACbOAE3JDZ/UEIWA94IAYkIpNvAplgF8gGueAAOAxKQDmoAnXgJDgN2sA5cAlcBTdBPxgCD8AomADPwSyYB4sQBOEgCkSDpCFFSA3SgYwgFmQDOUEekC8UAoVD0ZAASoMyoT1QLlQAlUAVUD30PXQWugRdhwage9AYNA29gt7DKJgM02F5WB3Wh1mwHewO+8Pr4Gg4Gd4CZ8H74WK4Ej4Bt8KX4JvwEDwKP4fnUABFQjFQSihdFAvlgPJChaKiUELUdlQOqghViWpCdaB6ULdRo6gZ1Ds0Fk1DM9G6aCu0KzoAzUMno7ej89Al6Dp0K7obfRs9hp5Ff8JQMHIYHYwlhoMJxkRjNmGyMUWYGkwL5gpmCDOBmcdisQysBtYc64oNwcZht2LzsMewzdhO7AB2HDuHw+GkcTo4a5wXjotLxWXjjuJO4C7iBnETuLd4El4Rb4R3xofiBfjd+CJ8A/4CfhA/iV8kiBHUCJYELwKfsJmQT6gmdBBuESYIi0RxogbRmuhPjCPuIhYTm4hXiA+Jr0kkkjLJguRDiiXtJBWTTpGukcZI78hUsjbZgRxGTiPvJ9eSO8n3yK8pFIo6hU0JpaRS9lPqKZcpjylvRWgieiIcEb7IDpFSkVaRQZEXogRRNVE70fWiW0SLRM+I3hKdESOIqYs5iHHFtouVip0VGxGbE6eJG4p7iSeK54k3iF8Xn6LiqOpUJyqfmkWtol6mjtNQNBWaA41H20Orpl2hTdCxdA06hx5Hz6WfpPfRZyWoEiYSgRIZEqUS5yVGGSiGOoPDSGDkM04zhhnvJeUl7SQjJfdJNkkOSi5IyUqxpSKlcqSapYak3kszpZ2k46UPSrdJP5JBy2jL+Mhskjkuc0VmRpYuayXLk82RPS17Xw6W05bzldsqVyXXKzcnryDvIp8kf1T+svyMAkOBrRCnUKhwQWFakaZooxirWKh4UfEZU4Jpx0xgFjO7mbNKckquSmlKFUp9SovKGsoByruVm5UfqRBVWCpRKoUqXSqzqoqqnqqZqo2q99UIaiy1GLUjaj1qC+oa6kHqe9Xb1Kc0pDQ4Gls0GjUealI0bTWTNSs172hhtVha8VrHtPq1YW1T7RjtUu1bOrCOmU6szjGdgVWYVRarBKsqV43oknXtdNN1G3XH9Bh6Hnq79dr0Xuir6ofqH9Tv0f9kYGqQYFBt8MCQauhmuNuww/CVkbYRz6jU6I4xxdjZeIdxu/FLEx2TSJPjJndNaaaepntNu0w/mpmbCc2azKbNVc3DzcvMR1h0ljcrj3XNAmNhb7HD4pzFO0szy1TL05a/WelaxVs1WE2t1lgdubp69bi1sjXXusJ61IZpE27zrc2orZIt17bS9glbhc1n17An7bTs4uxO2L2wN7AX2rfYLzhYOmxz6HREObo45jj2OVGdApxKnB47KztHOzc6z7qYumx16XTFuLq7HnQd4chzeJx6zqybuds2t253srufe4n7Ew9tD6FHhyfs6eZ5yPPhGrU1gjVtXsCL43XI65G3hney948+WB9vn1Kfp76Gvpm+PX40vw1+DX7z/vb++f4PAjQD0gK6AkUDwwLrAxeCHIMKgkaD9YO3Bd8MkQmJDWkPxYUGhtaEzq11Wnt47USYaVh22PA6jXUZ666vl1mfsP78BtEN3A1nwjHhQeEN4R+4XtxK7lwEJ6IsYpbnwDvCe85n8wv505HWkQWRk1HWUQVRU9HW0Yeip2NsY4piZmIdYktiX8a5xpXHLcR7xdfGLyUEJTQn4hPDE88KqIJ4QfdGhY0ZGweSdJKyk0aTLZMPJ88K3YU1KVDKupT2VDry8+1N00z7Km0s3Sa9NP3tpsBNZzLEMwQZvZu1N+/bPLnFect3W9FbeVu7MpUyd2WObbPbVrEd2h6xvWuHyo6sHRM7XXbW7SLuit/1026D3QW73+wJ2tORJZ+1M2v8K5evGrNFsoXZI3ut9pZ/jf469uu+fcb7ju77lMPPuZFrkFuU+yGPl3fjG8Nvir9Z2h+1vy/fLP/4AewBwYHhg7YH6wrEC7YUjB/yPNRayCzMKXxzeMPh60UmReVHiEfSjowWexS3H1U9euDoh5KYkqFS+9LmMrmyfWULx/jHBo+zjzeVy5fnlr//NvbbuxUuFa2V6pVFVdiq9Kqn1YHVPd+xvquvkanJrflYK6gdrfOt6643r69vkGvIb4Qb0xqnT4Sd6D/peLK9SbepopnRnHsKnEo79ez78O+HT7uf7jrDOtP0g9oPZS20lpxWqHVz62xbTNtoe0j7wFm3s10dVh0tP+r9WHtO6VzpeYnz+ReIF7IuLF3ccnGuM6lz5lL0pfGuDV0PLgdfvtPt0913xf3KtavOVy/32PVcvGZ97dx1y+tnb7ButN00u9naa9rb8pPpTy19Zn2tt8xvtfdb9HcMrB64MGg7eOm24+2rdzh3bg6tGRoYDhi+OxI2MnqXf3fqXsK9l/fT7y8+2PkQ8zDnkdijosdyjyt/1vq5edRs9PyY41jvE78nD8Z5489/Sfnlw0TWU8rToknFyfopo6lz087T/c/WPpt4nvR8cSb7V/Ffy15ovvjhN/ZvvbPBsxMvhS+XXuW9ln5d+8bkTdec99zj+cT5xYWct9Jv696x3vW8D3o/ubjpA+5D8Uetjx2f3D89XEpcWkriCrmfrQAKSTgqCoBXtQBQQgCg9SO+au2KZ/uXx4EUjb+4nf/AK77uc5gBUIOUwE4AXNkAlCCpuhPxIEhv2TL6swE0j/6Sf3iqz15wOSJuIzaxBHEO0Jh05j+814pP/Mvc/17BF9W/1d8BNAS3Z0K+FigAAABWZVhJZk1NACoAAAAIAAGHaQAEAAAAAQAAABoAAAAAAAOShgAHAAAAEgAAAESgAgAEAAAAAQAABNKgAwAEAAAAAQAAAH0AAAAAQVNDSUkAAABTY3JlZW5zaG90IXQDmAAAAddpVFh0WE1MOmNvbS5hZG9iZS54bXAAAAAAADx4OnhtcG1ldGEgeG1sbnM6eD0iYWRvYmU6bnM6bWV0YS8iIHg6eG1wdGs9IlhNUCBDb3JlIDYuMC4wIj4KICAgPHJkZjpSREYgeG1sbnM6cmRmPSJodHRwOi8vd3d3LnczLm9yZy8xOTk5LzAyLzIyLXJkZi1zeW50YXgtbnMjIj4KICAgICAgPHJkZjpEZXNjcmlwdGlvbiByZGY6YWJvdXQ9IiIKICAgICAgICAgICAgeG1sbnM6ZXhpZj0iaHR0cDovL25zLmFkb2JlLmNvbS9leGlmLzEuMC8iPgogICAgICAgICA8ZXhpZjpQaXhlbFlEaW1lbnNpb24+MTI1PC9leGlmOlBpeGVsWURpbWVuc2lvbj4KICAgICAgICAgPGV4aWY6UGl4ZWxYRGltZW5zaW9uPjEyMzQ8L2V4aWY6UGl4ZWxYRGltZW5zaW9uPgogICAgICAgICA8ZXhpZjpVc2VyQ29tbWVudD5TY3JlZW5zaG90PC9leGlmOlVzZXJDb21tZW50PgogICAgICA8L3JkZjpEZXNjcmlwdGlvbj4KICAgPC9yZGY6UkRGPgo8L3g6eG1wbWV0YT4KisZsOQAAQABJREFUeAHtnQe4JUXx9gcEERHBrAiyIEkEFAQWJOMuKllyEpccJIMKkpYsWT6CrgRBBSQnkRwkSk5LBllUxIgKRhT99jf861i3d/LMOWfOuW89z70zZ6anp/ud7urq6qrq6RZYYIH/RiIhIASEgBAQAkJACAgBISAEhIAQEAJCQAgIASEgBDIRmD7zrm4KASEgBISAEBACQkAICAEhIASEgBAQAkJACAgBIRAjIEWaGoIQEAJCQAgIASEgBISAEBACQkAICAEhIASEgBAogIAUaQVAUhIhIASEgBAQAkJACAgBISAEhIAQEAJCQAgIASEgRZragBAQAkJACAgBISAEhIAQEAJCQAgIASEgBISAECiAgBRpBUBSEiEgBISAEBACQkAICAEhIASEgBAQAkJACAgBISBFmtqAEBACQkAICAEhIASEgBAQAkJACAgBISAEhIAQKICAFGkFQFISISAEhIAQEAJCQAgIASEgBISAEBACQkAICAEhIEWa2oAQEAJCQAgIASEgBISAEBACQkAICAEhIASEgBAogIAUaQVAUhIhIASEgBAQAkJACAgBISAEhIAQEAJCQAgIASEgRZragBAQAkJACAgBISAEhIAQEAJCQAgIASEgBISAECiAgBRpBUBSEiEgBISAEBACQkAICAEhIASEgBAQAkJACAgBISBFmtqAEBACQkAICAEhIASEgBAQAkJACAgBISAEhIAQKICAFGkFQFISISAEhIAQEAJCQAgIASEgBISAEBACQkAICAEhIEWa2oAQEAJCQAgIASEgBISAEBACQkAICAEhIASEgBAogIAUaQVAUhIhIASEgBAQAkJACAgBISAEhIAQEAJCQAgIASEgRZragBAQAkJACAgBISAEhIAQEAJCQAgIASEgBISAECiAgBRpBUBSEiEgBISAEBACQkAICAEhIASEgBAQAkJACAgBISBFmtqAEBACQkAICAEhIASEgBAQAkJACAgBISAEhIAQKICAFGkFQFISISAEhIAQEAJCQAgIASEgBISAEBACQkAICIHuIbDAAgtE++23X7Tssst27yUN5DxDA3koCyEgBISAEBACQkAICAEhIASEgBAQAkJACAgBIVAKgRlnnDEaN25ctPHGG0ef/OQn42ff/e53R3fffXepfHqZWIq0XqKtdwkBISAEhIAQEAJCQAgIASEgBISAEBACQmCUI/CBD3wgWn/99eO/97znPR00/vOf/0Svvvpq53cbT6RIa+NXUZmEgBAQAkJACAgBISAEhIAQEAJCQAgIASEwZAiMHTs2tj5beeWVo+mn/1+0sVdeeSW69NJLo0suuSR6+eWXW11rKdJa/XlUuKoIfPjDH46+8IUvRL/+9a+jiy++uGo2jT+H2ep0000X5/v66683nr8yHL0ILLjgghExBaAHHngg+tWvfjXqwNh+++2jGWaYITrttNNaXXd4wJprrhmX8bXXXotuvfXWyuWdZ555oj333DM69thjo1/84heV89GDQqBNCLz1rW+Ni/Pf//43+te//tWmorWyLOL/3fssjCkrrbRS7HJ05JFHRvBsUTkE3vKWt0T8Qf/+978jLE1EQkAIjE4EPvGJT0QTJ06MkF89PfTQQ9GFF14Y3XjjjfG4z1x+l112ad1c3pe5MUXadtttF80333xx3scff3z029/+1r9nVJ6/7W1vi5Zaaqno4Ycf7vrAy8TsK1/5SmQmkaPxGyDsrLLKKrFpKFpuMPn5z3/eKkUa2vWPfOQjcX84/PDDS5WtLd/4ne98Z7TXXntFM888c6ysOemkk/rav8vynre//e3Ru971rk6Z//znP0d/+ctfOr/bfIIg+sUvfjG69tpr44HFl/Uzn/lMhCIJ+ulPfxrtuOOO/nbPzst+j6YKtvPOO3fqzzc+7rjjmsq68Xzoy4cddlgn3y996UvRI4880vld9ARecuaZZ0bEkECJuvXWWzeiQP3Upz4Vve9974uuu+66CEVGrwnhaocddoh5OLicd955vS6C3tdnBO64444IZRrtb7fddotuv/32UiXqFx8qVcgGE7eF/4dV+vznPx/BT+add95ozjnnjBhvn3/++ei5556LLrjggq7LxmF5yvyea6654gXZddZZpyNb0w5//OMfl8mmq2nhlbR1ZAPk3VNPPbWr76uaOWMc/RiaPHlytMUWW1TNSs8JASEw4Aiw8GNKtL/97W/R1VdfHSvQnn322XgxvMhcvi1z4kYUaZjjffnLX+581kmTJo16RdpBBx0Ufe5zn4uY0H3ta1+LJyQdgLpwQoPabLPNOjmPpm/AZHK99daL1l577XhC2QFh6gn3+EPAaBshWJahtnzjpZdeOlp33XXjoj/zzDNRPxVpVXjPZz/72ejggw/uQH/MMccMzEQd3PfYY49YSXbWWWdF3/nOdzr18CdYPvaDqnyPJso5YcKEjhKN/N7xjnc0kW3P8jDrm7IvZPLEgg30wQ9+MDr99NOjLbfcMvrDH/5QNqtOespy6KGHRqwEMtmhrzDx7SUx+Wb8hOB7UqT1Ev12vYvvj8BdRpHWLz7UFuT6xf99/VHEH3LIIdGnP/1pfzl6//vfH80///zxNQJKY5Vw5513jkjTzx9gZ5M4ZB3an6fll1++VYq0j33sY9Hqq68eFxEFVVsVaR7DsrKvf1bnQkAIDD4CWKQiV2J9hhINYwbm6sxvis7l4c1t0Hs0okgb/E/afA3YbQIlGsRqHCv7ouYQQNhhBRYFGlZ/obDDm+ioCN//+Mc/mntxzZz+9Kc/dSzSamalx0cZAvATrK4glCerrrpqqiJtNEHz0Y9+NDb9tjpjjXfEEUfYz6E+vvDCC9E+++wT/b//9//iVTyUX3vvvXf09a9/vXK9N91001iJRgaLLLJIbEXSa0Va5cLrQSEgBFqBABbBuO9kEco2eBdy3IsvvpiVtOv35p577o71mbdY9y8mVMiDDz7oL+lcCAgBISAESiJAyCX+BnUu76srRZpHo8Hz++67LzZlJ8sllliiwZxHd1bs7LH55pvHGuvZZ589EYyXXnopuuyyy6Irrrgi+t3vfpeYpl8Xt91225hx8H7FfenPV/jjH/844sW4mgwCYXVlrtuUlwmIKIr222+/WIkEFsQIQ5E0mvrWXXfdFR199NHR/vvvHzcHrBMuv/zy6N577y3dPGabbbYIHmX06KOPRj/5yU/sp45CoGcIEHzYFsj++c9/9uy9elF9BFjk8Uo0+AiW61OmTImQ27A4wHKW74tVLS5/8O1+0GqrrRZttNFG0ZJLLpn4euJ5wQMJy8EijWJ7JcKUe/H73/9+7MpLwn6EC8gtoBIIASHQMwQGfS7vgZIizaPR4DkDLmbrEBYTs846a61YEMT8wl0UlwWI+DpMoPpB48eP79Qt7f24nFWZyKXlZ9cJ+IoAFhIT51tuuSXe5eOee+5p1UDNpgdrrLFGWOQRv4lp9+STT4641o8fH/rQh+LYZwiPbXSHbQIThOJll122k1WbLBY7hQpOcIchNpoR/KVf/d/K0IYjrjd+AsRk7a9//WsbitbTMjDJ23DDDTubTRAfrwr/JS4ZY5XRCSecYKc61kSAxR1zw2UjkG222aZmju15HMtF4uLWjY274oorJo7vvqYojH/zm9/4SzpvGQIm+1IsFje22mqr6I033ohLidv5iSeeGC92mNIe74L3vve90e9///tGa1JEnmEhJskCDfmHXeOuuuqqWq7yjVZowDIjTACuu8gvacQ4lRaiIu2ZKteJ6Ut7gFhg7/WGESiMef8vf/nLKsVPfIYQFrj2YrgxrETICjx5eiGn014XWmihTCgJZ9OLsmQWouGbbKCy+OKLd3LFKwHMu0mDOJdPw2MoFGkwEhgUk38+/uOPP94ZtNMqXvY6q2i8B2bIKtpTTz2Vae3EBgNGpMcqrc7KPs/jtmPEoNAvYlD0k9ekcvRyp0wme1deeWXXO35SPYtcm2OOOXLxIoB/G+ioo46KcEuG8FW/9dZb4/Nh+sdq6N///veuVgllBP0Es2UENibOdVZhcem0Ps+KeBkFB2WBPxLQk3IM04o6VitG8H12+ilKbE6CaxG8HUU8bjv93nTChG3cePlWRcvDN8VC8ZRTTomrTx+mXmWEIeJTYJlhBJZ+HLPrScem23vSOwb9GhMC68OmVBj0OrHAB2/C+ujcc8+Nd46tUyesg/Jki5lmmqnOK3rybJv6Qz/4P26SRsTASWrv559/fqxMNqtD+E/TirQq8gxyOtZT999/v1VBx4oIIANZ/La0LOoq39PyDa/Do7797W/Hl59++ulcY4Dw+Tq/kTWwGl9hhRXi+LZ13YORD1j02mCDDeLFGRTRZcb6OnXp5bOERTr55JPjvsjO5El8pMny7LrrriMWrJPyxg39Zz/7WdKtgb2Gp4spmamEGez0ukJtn8un4THQijQ6GbFgsPjyxATk2GOPjS2U/PUq50yE2Q2TIN8+IDQTF+KesfNikgUE7mOsejBRg9ihoo4irUrZu/VMP92mQjc8GOvLL7/c6kGkCPNHCdwvYpA3MqGW36wQDzPRNxE+mmjPWJcQhJg8+QsneyhEiNeHUAB/KkPsxogrjBFKY1bFsojJE5ucELQdhYrR66+/Hgf4xCKgisWS5dOWo1ek3XzzzZnFYiGC8cK+Ebj49o6ik5hj3/ve92LFfC8Vjigk2AmXINy+PzKxRKFFu0kaZ3yFsVJEWYqQjSCEdQ9tpSjhXmXvhh9luQ53s70XLe+gpfM8vgme04b6syGEufCxiQuW1b3sN23AgDK0rT/0k//DQ7wFUlp8RSzTkJPZcRiCP9dVMJCP8TDOPX9Pk2eQAbxFGu7tTzzxBI+LBhwBxkFTCtiRKqW1hW5Vd+LEiXFMZ/L/5je/GbGDKbJGVaJ/k4fRuHHj4nhT9nsYjvPNN1+8MMjiE7IM8iyWU92kIgYNdRbEu1n2Onl72YR8eiGfDOJcPg3j/82g01K09PoyyywTMyRzlfDFxAIIgQ4XgGuuucbfKnWO4oyAqXTikGDKTFJ5FzuWJlkOsI0rkzbIxzYK8yrym+22sbgw8ud2rVdHMMV6I4u65aaI8hKl5NZbbx2/HguOb3zjG/H5DTfckFWkvt1jRTZPMCtq+dFEJRAucTVlZYXBqsjg0cR7+50H9WYbe3YRw+oBAR4lJ0GOUSoVUVak1WHMmDEjTKPDdJjgwy94N7iX2VURBYsJgVjSnXbaaWH20/xG+cZfSPA0LGtxpWB11lZow3SD8Jt2C/81QpGUR8stt1xqEtoHu4kh9JJvEZzJDOsLvi30yiuvxLsQxT9K/DMXp/ARBP5NNtkkWnmq5d2EqTHysvguwhATURS6EN+5qCINCzaEcSN4VpZrdzfbu5Vh2I7ICabUHhbXxOuvvz4O0M63oq2yuFnHzQhLIPLMorbFPaWsdfsDvIdxgcXWJqyy6vD/umVB5rXxCmyy2jp1NUUaMXOqEOWtI8/svvvu8W7H9n54ITtf0l9ZmBgWQgZh/GeM6hUh57BAk0VNW6ShkCUMBtZfWAEzR+g3eXkPuQXLccpY9VvQp4g7uNhii8VVQ/7opRdQL/Ck7xEb06y4sZZnEfrss8/u2uvBNU3xz0tRMLVx/KkLyDHHHBPLseTDHKMXbs+DOJdPw3kgFWnExSEWjrf6YFWJSbEprBjI2bmNyUUVBQvPs3Lgt+5mpRX/diZZtupl5sJMhEK/aS9AWLnSPkTedSb7/d7VyMpIJ7vtttvsZ+kj2GKSzHdEkYMgBa4wMCZ+eYI4lhKsCliMGVOmca2Ma1fpgld8gMGyDl4VX5v6GBaWfsvg1IQ9vEH/YCJBrB0UAFhOPfDAAxHx7rDkqsvYEbaxRiKOlCfaDsoT/lCYI1SjAC9LWIjRftnogj++OfyAlUN4CPWCWO3GZfbAAw8s9AqeZdHAiIlmGcGTMkyePDm2Zpprrrk6G6CQ33bbbRdde+21cQBoy3+QjiFPfe655zKLjxKKeD0ItfAbftOu4EdggzBqQhu8hS25i/BcJtHEJINYZUYJVZVQXpEHVmULL7xwNMsss8RZMSHYZZddogMOOCAza9quKdJsgpr5wP/dRFlrBCaTJk2yn4nHbrX3xJcNyUUmPkWJNgmfoB2kEeMdFj0sWjG+FLF8Tsur6nUWIOhP1hfpQ3njd9a7cLnib9Cobn9AAcmYsO+++0Ysmp5zzjmNuA9V4f91y0Lb9ZS1UYQPsRA+5/PIOq8rz8Bzkd9PP/30WPHCu4gXNAzKNJQ2LDpjOcoYAlFf5CrGfmSsbhLft5eyL2PxWWed1VHOdrNuZfJmvjrnnHN2rNJQ9rFwS7vzfaBMnvAJU6QR+gdFsJ9zpuWFQpW4zbiDMpfF6wqZlY1AkHnuvvvutEcLXWexiPkFcgjugtQPns4i33nnnVd4nEJphhKWRV8zmEE+53reYkuhgiYkYvG06AJqwuMDe6lf+oVBm8unfeCBVKQxcJoSDUXZwQcfHFueoehiFQLtKhMiBmbSEoQ+NF1MA8Sur7LKKiOUaDCBffbZJ54gw4hQ0hEsD2KSvNZaa0UXXXSRPR4fveY6SyAe8dCQ/4DZY0HmAxtSZSaN/K255prxzj7EE8gyoWUQ4r5ZcqAQ4ZmvfvWr0U033TTkKFavHvFs2qZEo+/QT0PLOAQPLMhQDqDYePXVVytXPEmJFmaGUMGGHj6of5gm7TcKLv6SiIEZnkT8Hyhs+0nPcI027XcyY8JaZjUOnsXEzCveEKgxj4c3kj9BoOGfg0heUcSEMWvCRv1QNNDW0oiYPT/84Q9jXMBm0UUXLaRIS8uvzHXGLizhCGxtfA/lBLxyqaWWirPC6oK2lOUa7M3lPT5ZZaFdmkBOujPPPDPy+SQ92432nvSe0XqNfpq0qU4aHiiR6ct1FxzS8k+7Tp9iUkNwYgirRvhLWXkrLf9BuV63PxA6BGJSy5iHKz8LSCjUqio7qvL/bpSlW9+xKXmGBRZkyTPOOKOjcGKcxnIIy7Sqyo5u1btIvmyohNzBYp4nYtHxhzIFZf0dd9zhbw/sOUobLOyLjnu9rCjjOx5SWGvaWPvxj388Ht+J/cX9sgTfRW5GVmGhGNd6wlJkEXNXFMYsVnvCtZl5LPMvFmaMn/s0Rc5ZKKYMtC8j8ka2Zk7N+ICLZpZlvT3HkcUncCNUEzIr9SScEnPrhx56yCfV+YAiMAxz+b4o0lae6qbCqhdEZ8iLbePbB5YjxJExOvTQQ2Mtuv1G+EDhxWoSRKwGrMbKCiMwJSMsTfxgihsnE1wGXQvMzmQkVKT5mDZmwWZ5VjlikWAKRAQ3P0Gukl/WM2XfVTQ9k/YsRQKMElcmGCgrLlmEkMOkE8saiAHFlGll2lTWO8rey8Nh/fXXj8ZMXTVjAvLd7353mgkrq4cMPJg1M6HFMqsp4r3bb799JztiyzExx+3UXBhwiUah2QQxGbC+yipXuMukDYp5O5qSBwISZU9yoc4rK3hiAWmEQop6YqmF8EVfNjdIlCcM9k1bNmJpaYo0hApcLPK+Lfj5+I/f+ta3Ot/J6pJ2pH0hsHhlPmlZhca90RRKWIT2k+qMBT6Og+e1VeuDwpZNZBBwIR8wu2qeRZ9j183QDZN2yu7Ml19+eUeIZPzLUqR5RQptII+YuHvXG/Jm1bguVWnvVd/JajXjsxE8rc0T37wxgm/i62P1yjrSj3nGwhwkpa3T15Lys2uM0zbxYjEEK9oiVihYF5hcxAIB7d0TFsrzzDNPfInFsTD8AeMBSgK+NbJYHj/1eYfn3cLG3pPXH8KJNGMjFtL8PfbYY7FCDZkmTGf5h8c6/D98R92yhGVr6nfT8gxWyqEyDUsf5Ez6bJt5SogpingUDta/wvv85h6ha+AbafMj5mn0DYh5EGNRGuFhgiEDhGUTY6knZC1bxAVL+LQnxl3KDTGPKxvDFX5iVnfkwY6rhKHB2op5AvOOMjG2muYJLPYx1npFE8YYLP5n8W3qkkR4PWBZaF5TWANnKdIwLqEth0q0MO+8Bckwvf1mborlnVei2T07MhdHprE5m13POsL7kddRGkLIzniLsdBUxGMgzJuxksUKCPzqKJLz2nT4bn7njf/+mV73qSbbfJl6tnEu779D3nlfFGk0DmOoCI1llB6YxBoxkUqKgXbnnXfGLg9MoCEsW9IGCssrPPKMEa6h4SDKiivvNkWaT2/PecGOzl+XEFbN1QfhtZuKtLLvKpKeCbwxfbBg4vqDH/wgVoChMCAPM+9nwGHSHwp1IYYoTBkkTUGEcMAqHKs8DMa9pjwcxo8f33HVIz4I9ffEarANRCgTactNEUKhERPuzTfffJoYDb7NWtqqR4QEzMchFB2hIg13Mq9Eo08hqDFhgi8wUNpECuUeyjAmXGUJfsNkAEJIoK0gFEK4OWDJQX9iNQ0ifRVFGu8g9hpuglhesvpn5BVitPE8RRpCDwOREbsEXXbZZfYz94iAESrR7CFiiZkiLYlvWbpeHOuMBR7fMvyVxRWEar4RVl9+smFKNOreSyvitEkD7ZOJAG0KyvtettBCWnNT5TyNWLTwebI6WJQHNNne08pX5Dq8wluRolQJx+si+fQqTd4YQawxBHRP4S69YI9SlVV+s+T1bdc/a+d1+prlkXRE0YNFj7VRJsNFFGnIgNZe4fuhIo2xEqsaCCVHqEhD0WYTZ8bKOhOiJrCp0x+whMb6jDGPCbHnZyzuoPCAF7CAitUqk/IsqsP/my5LVjnr3OuGPEM7w/qdRUxrWyiT4Is77bRTT4Jw18GEZ5FBzOqc38jQtC08c+CL9Bv4Pu2VRQjqmzY/QulivJX4fVmKNPiPpYV/YdDgCWssu08onlCRhoLD7vNtkU/LkBln8AxjAJNzT2UXxprgCf79nFNv5DoUXhYvk29B366ygIXcanMqvhVzB/JKIrC1+Sr3sWJm/kF4AL4XYwnW71VDU2AE4PNH3v/Rj34Uy1EoqK0/8Q74ehkXUnaEZu5vegNkdeZ+/C7rqQJG1s6Yo9QZN3ybBsewTSd9h7zx3z/T6z7VZJsvU0/q3La5vP8Oeed9UaTlFSrrvrdCwAKJgcBf41kEaxPQ+F10YkBaI/+Mn7DZfY7+uk9vabxJNWUd7eQDfWP5wEDpcUOIwYoGguky0cVqKo+MeXllGq63xMMqEjMgL/9hue8FzyuuuGIaJVov67nFFlt0BjPeS3yG/fbbLzYrt3KgqGbiYFZtlL+KIg3B0ohB05Rodg0lH3iYK5VNCO1+kSOCASuLpvgr8kxWmgkTJnTiDpGOFbgiFkaWJ4N6Gvk+gUACbyqTd1q+vb7uJ97w4rx6MFbAX3BfYIyoQijh/CSXPCw+FOco5bxiimsQq8dm9fnmlZH/EbDTiO9lbTLPbcWEc/LKagPcRwHjV4bZwIbFiyLUdHsv8s7RkoYxD77nd2XD1RYeFRKyj1nbmktwmKYXv+HVNv6yqo0St5fKTJQC/aQm+gPjEhb7WHUwuUZ+scVg6sYEEDcn3BmJLZO1sJLV94vw/ybL0q3v0i15hoULlEsoY0yhjQyBAoTdrttMKOHxyrAFaRbbkUu8Epr7jEXUEcJKiPR5i9bdrrfvw/68yHsZc1FqGFWRE+3Zbh9RdGE9R+wvm6fiYot1VCib5pUFIxT4rC2asYhBvknkFY0sPKDc8vMvwlowZ82SU5LytWu+P6J09S6rlBMlrC36IIOVUaTxDhYTmBeuuuqq8Sv55shz8MQ2UNk224sy+zL58168u8o7BnUuP32VyvbzGb9lMMzfgjz7MiGAemsC/4xPl3Xun1l99dU7VkL2DEwbNz0jFAEhpVmEhOlGy+8xU10LjTC79kyc67jG+ms2ebRnso50QD+AwLAnTpyY9UjiPYRVFCr8WayQxIQDeNEUUhTdBvB+VAOh1Mf+wpoBq7Bwp1dW3Y2xUk5Wu6oMBihQjLxy265x9P3XhGd/P+scyxAsRrwSjVUyFD2PPPJI/Ecw6qIEbzGlHs9grVTEwqNo/lVN94vm36t0KKeMaBcoubIIRS1xYUyJhvIQ5T0WNfad8lY3WTVjldX/YcFhBM/y9+wc5UJV8jwxr/2z+GDk8bFr/ojiwwRbrtOGiyhjmm7vvkz9OMc603i+78P9KIu9k3bmJ1VMhm1F39LAy8aOHWs/Y1f1zo8en3jPAGQvc/HqcTH68rqm+wP9lnGPSfEhhxwyzaYDKNeSdpIvWvky/L+Jspild1L5vDVw0v2sa92UZ0yZ5hdy4REoncpSL/kLPMIWdgiDgRWdV6JZ2VESmuIML5d+h3iwclU9huXvpRK/SpmRN1AA2XjL4hxhivLG9/BdKL28bGiusWE6FhktNhv3UNZ7ucLS46lSZVGVubi3iCYUi7Uv8oaPeEu3pMVGK0PakfyIdYy8ZoRHy2gaa6zew3xsai7fS4y6okgrywzKVJjVNO/uhlUTux0hABN7CE2/d4nCTz/01S/yPmLWGGEFwE4wmL4ivLL6iOk37zNCMSTKRsArKLyAYk/h2uetTPImxvacHemA3qKCSYat1FiavCMDMi6H/GGqPEzkV6kR/pPIt+k0pVPSc0WvocBD8WA8AkscYnT4svm8ULIZMenPs8ixfO0Zjj4PXPqSYkT4GFumaPF5ZJ0Ty8zaGYM9OyuiOMGtFaU+fyhxihJ4WH4IWk2vgocWVUXLVSVd0veokk/SMwhnfvUUs/Q0wmLNuxHff//9EQskrIxi5m/fKc3FMi3fXlwv0x49Br7dh+VE4bfxxht3Lt96662p7j2dRP930nR7D/MPf3ezDfEuJsjG85N4Q1ieXvxmkgPPMGt7JrsoVQwLlBMsHNliE/0A961+EQuPfiEE98Q2keHWjTJ1qz+g8MLqDIvDKm5faXWtwv/LlCW0rvULWWGZTOnD9TQZIHzGfvv03ZBn8JrAUsgUj7Qh22DMylDk2A/+gjKEmFJeGe/LiqLJLxoZH/FpBuk8bHPeOsrq4WVb701k93t9JHwIlsdGKKKqfAfcO43oBxbv165xJF+TKflNWJ0mifm3N15Jyt+PD1XqSXlZXKdd+1iwdcYaeYo12Qqay6uJuXxzpcnPqRFFGpM9r31OG9SsOH7wZDJUlvD/94oYLMMQOGAoWLYYMVBUsUrieQKRewsnTKaZ0BJ3i6DfWC4Z4XLhVwXs+rAcvbtQUp1QjvjJXtoKpE/jXRZ8nv7ZPKWJf87OMVs3YpVkoYUWsp89PybV0SsH/YoqhWN11mNtq1VNFdxPrFEomcsjAiIxvFBI+/KlCRtewUZ50yYpPi+zfNlhhx1G9B0mi2kxHaj3GGfFiHtTyC+K8B74gq2+0QYx+ydOCO3DyMfPsLR2L+9IDBsjTNixQvL8kHtFV95pE0zMjAja6wUQu553zOLB3moJHlllBTLt/UW+h3+2zlhAuX3cPRY40ggFif8GRx11VKLbt0+TllfZ67SFvF0wsyyh/Pfyk8ewHLRhv1iRNSax4GT8GBxxHS5KTbb3tHf6/uPjCyalZ2w2QqFkE1+71qZj0bGSMmPFiqxhxMLQRhttFPNPYuyY0o/vRzwi77Jnz/hjnb7m80k7x53HaPnll89c9GBstPbHM36ssDz8NV927qMMsjHF0vtjL/lQt/oDbQUL2osvvrgTG8jXMeu8af5fpiwsSnl+5/mXLzO81n9XrMDKUFPyTNY7n3766RGbwHirm6zn+n0PvpHlOods7WVt4mXlUZI865/x39m7WVoafx+ljlfskMa3BXum6NG3BZ4hdIgpdpBXWdhkgdKI9uzlP7vuj748odzp09U5J/aeXwysstEX39nLrEmeNN5AgfJ6pWKd8tuzobI8CVvvoWWxvu35Mkd2/PSLRmUx87IFcde8zFSmHKT19aBN5S1SkMaPe74PJr3b95kqfcrLRnn9l/d3q837eW1SPZOutWkun1Q+f+1/M0l/teQ5QovvJN7dIMyKhufN0n2jDtOm/WbAxVooa/cyJoi4rqRZo9FAsVBIWrmw96IV9YKsXfdH/L5R1oHBsJK35EiqYxgc1+94aukx5fXmvEwIYCqeeI8Nfly3IJo+Td65V4iQNkvYzsur7n0L6G75oLzyAq4psuw+Jsq+vE1vJoEVjhEDHeb9WPChHMYC07sqky7NjcHXi8kO9QqJVTE/wcBSBtNyLH+MmCBkCXsIQH5HwQcffHCaflaE9+C+t++++3aEe9odVnEowIlFxkTddvGhbHkTUiu/Hb3yJRQOLU1RhS4uryaEoBAIA+ZafnlHsEtTRBPs1ajs5MWeSzsW+R72bBNjgZ+8s9uqX+Cw93D034jfaQJP0mou6Y3gW4wZ/g+llBGWOf4e58Qm8VbUltYfvcLYX0fg9Rvs0JbTyGLecJ/vmmaNQL8GKyP64ZSE0AR2Pzx6LOu29zBv++37IDzTC4SWxo5+RZoVZj+psDRtORYZK31ZUfp71ywWHnCRsXEOHgHP8Apl/7ydN9HXLK+0o59MMVmAt6YRY43xOdJgHeoJN36vQA1dlrAM8rKClz/Jp5d8qOn+AN8mDhpjMzHTvMxA3VCmZynJSdMU/69aFj+uYPWbROxi7SeVWfJ80vNNyTNJeftrfpEjb+Lrn+vXOQtv7AifRvBIXORsARQlS5HdD5Hn0iyJGAf8PAFZz8v7lMXLl8hgePh48jwg7M8+XdI5dWBDJiP4AxZfuJzTV1go8koC0jE2p1Ev+CXvpj15vkm/LUvIMp6XIsv6RQjyw4KLzc2M8Nryz9j1qsdQLkFxGRIeR02RVzD5OVOR/EM+Ax+qSl5pSR/wuo2kPMuM/030Kc97URguuOCCScWKr3WzzXvekFqA4IbJOHa57He253pxnKGpl7AiYI2bjsxHgYGh0ELjbmbRTKi98J0m7OeVC4s0rM8QOHzjRDHH7jQowdLyhlnBYI2RYCrKzpxJNGnSpDiODpMUL9CgFccsF5P7YVaigQmKMQSe++67L6Le5gZnHS8UchkQGaxxF+KINtpb2ZAnE97zzz8/xg+BGMbvXY1Iw4QfJSW7DIam6Nz3xEQUgSdkimltwD/brXPKwiCJUMlgZztY2vuYIKPMwvIAnPzklnZcRLixvIocr7/++nhl2yvIwrg7Ph8UfZTvggsuiCenfG/6WiiAENvhyiuvjN1yUf5hGeTrQp64zIZbc2O9laSEQ7jAMotdX7wyyAvOvpx5vIe0TD4On7odPG6XJgwjFOK6wZ8ncCpD8CLDFP4Gw4fvGSFQendzux4ewW2ZZZbpXGanIvpbFWJyh+UuCkTv9sBA7/tiN/pH3vdociyA1yNEIyRTZ1z0wu8Jft6Cmd/wLG/pR5lYsc5bqYXX5/H7KotD8D4UxX63WMYp2iu8wcjH7rRrHLFO8gpu4k2mERgZwcuJZ1KGmmrvWe8MLQwIrUCd+Nb2LRmPmbB5ng/PrIJ/Vlm4h1KnjCBHWni+TV6KjpWkRy5hvOX7U0cvd1AWP/F64okn4vYIrzbLUt7NRJXJaFN9jbE1bVUZy2WUxQTH94TLNOMLiyXwQ6w6sOjhm4VxbeiPyIX0Ad5lAaUtP+SF008/PXZJAhs/vvC9k/pFr/hQU/2BNoYboJdnrf4csdxG5iyya2dd/l+3LMj+ZinCgigLaIz/xjsXWWSREYtkKPLDPu/rnnReV57xY3SYP32Xdkp79QueRSy3wryK/K7DXyinJxZFw2vch28wOcVV2McUS9ux0+fJObwECyoUvCgj+F5YuaBgQ67wSiDSsgh40003xUoc2oAPO0B+zLusnNSfP6MyMWXtmWOPPXaE4QPzCq9st3R2JCYoi0jEK0PRRNtsgl/Cx/IWTmlfyIzMCWweSrlCeSwrL8oKZox/XpnPWMN4CZ9gPDEFIwsyxjexGCYNIYlQglm/NGyYs2ONWZSwQEXOtDGCeRt9nHhm8H14tPGDtDyzxhh7BmUQhjrwSKOyfRI+SnkM91133TWea6IDyPKOsfdxpC7MXcJxis0PqDcebYRlMB5TZvxvok9RN+ZQY5xHD+U+5phj4nYBZiw4Mq9uos2Tdxal6RCSnqHMtAUv15Eu7BtJz/br2nRTV+AbMaVicsaEugyx6oyLlSlmyjzr0zLRYAJE44HBW1wRn8afw0S8pQfKMBpYHjFQoPBhUl7E1BezfFYUIRiKbbmb9560+1g10CEhlAx+IkjdEUKNwNUYqF0rc/TvKvNcm9IyybDtkouWC8bIAAvBVL3SoUgeTeGGMHTYYYeNeGUT3xiFA8w+ZFL2IpSWMOBw9c7u9+uIsMeA583grSxVeI89Gx5h1vTTpPeEae33hKmWF155w+CJhQh5MQFkEEFw8gQPIhiwEd8WSxMTcOExKEZ8GkubdmRRwXbOszTwVrDjiOKQQd4IYYLJb9MDVJXvUWcsQHGP0tCI3Z3Y1t0Tk28UtybsIzhircwkn5VSBFovyPMsikyE8zxi9ZvgvRATevh+HoV92dIjvMK3mQAgaJtgyn0mjgSdDwll89lTLZfMGo/nsZxLWgEeP378iDoxMSLeZxlqor3nvY8xnXANVqe89Haf78V3K0Mo6OB5EJYaPuaM5YMSwCZ9dm1Qj2X7GmPBddddN2Ky1qa6Y1lscpYvV6/4UBP9Adk5TdZAdsSVCf4Fz06jpvh/E2WBfxHiwC+EodhFpoKnMVGCBxphVYnSpSz1Wp5BBsGCvwy1mb+wUMfOzWlKTFwkcRvvJWFly/hVZSEZhTxjpG93VnaUPSg4lltuObtU6FiWXyJfMz8rS7wHCyI/f62aV9l3h+mrzJ3YBbTIgjHv4ht7z7U6Y8wRRxwRL7KFdcj6zQIzOyOLkhEo2+aTcmlqLkzeae0xlKPr6j2S6lHkWmMWaQyaCAJ+9SarAAQNZMCuq0TjHazEpg0ESWVgVdsTk9YixKqFD3JY5Jkm05hlAsKUtzJp8h2Wl73Lfhc5otizuC1p6dGEo1RImyBRNwQVmKxfeU/LL+0635hBqA6Fyo8ieXnhMC09yiomyd4y06dFsdF0gHnLH1wQNLDYRHGAcoWVCQRcVoVZnWJSyVbYWW2AfoBgHFpL2HvsyPfGIqvOtwQvttJO24mpLO+xsoVHLN6YSJdRopEHFnsITmaRi0VIaKUZviv8TXs3JRr3sBIqo0QL87PfthJmv/0R5UDTSjTyL/s96o4FKD4Ye8yaj0kZ7dzvJIhwipu+KaJYhYNX5fErj1c3z201HNP7JPN76mPKOl8OJqwsChk/hX8iWCYp0XjOL+YwiQoVjj7vtPMm2nta3nadMZ3FreOPP36aEACWJjyyUQR8qw6l8fyk+CR13lNkrAzzh/89/vjjsUVwkXEmfJ7fVfoa44O3eEjK167R/nC3xkIla/wgPX0SJb/1W8vDH++5555YgZk1VqI4T6Je8aEm+kP4PeEHyEEoyP0CaVI9s65V4f9NlIUxFPkeXmSLv/ShpH5EeJQqSjTq3ZQ8k4Wh3UOZWVaJZs/asVf8xd6XdcRTAiVa6Ormnyna7+0ZFoKwqAldC+0+Hgt8s7RxF77PYkgVJRrvsFAlWIRhfYfSFqUA80MC4MNDGVfSFpKtnHaswi9D6y7LK+tIf0E28Uo00pfJi0U88PNyZNY7s+7xjcoS7sTM/7P4eVqeZcYYnwcW/FgVliVkJsIH5FkOFsmXNoVVct5cyOdVZvyv26fsWxY1jqjS5n3d7Dxv/Ld0eUfKX3cun/eOuvcbU6QhQBFIHBPulaf6R9OZQ7NaOjkTdhoRk5oyyq+6FfXP0zAZuLHOwLLMu9P4dHXPrQHXzYfn6QSmjEDQCQdkGC4dOk3gLFMG/y6eQ5GBG2JSfATqiGUHZrEIRPhC8weT4vtTLiZ1KFQeffTReDJI2XFhgOkyoDKpxYqCdoHwiwspbm6sSmEFUJQBoBClTWFlgtBTViFCXX2QXIQBLFnCwY10SYSQ6PGnHNQPV0JMrNGq3zrV3RVLC+qFNRD1JP4PVkxgwCQE942kiXCT3xilGX9JhMDB6jYxLBgUMbWl79Lu6L9M5hg0OccdDhNnBiSwgvgO9DEUU5iPgwHfkpVAhKw8Bsu7aFOYovMHJgy0aVSE94TP8k0R6lAm0GZYNaZeVYh+R3tGCYcLg+FAXtxDwMFFHGUPlk8sHoT1oc0TxwOLMspVRTjgXUbE7eL7MaH1q7NgxXdDUevji9lzTRyLfI+mxwJWzVE+wtPhJ8Rj8Yo06oXlMTyBth0K+rQDJu24Q+DODBXl30X5Q5zp//3zfRllAv0EZTF9zU9eKC+8FYWSuQn4fHAxMJcJcMcVlPzSiMktq7HwXoRJVobLUhPtvcg777jjjtiiGB5D7DrGIL6tJ/g1ymC+NVa8YFCW/KKUj0fn84Efh+0Bfgg/K0pFxkqrH/yBbwMvZXEDVznGRpTrjB1YPbIYQ9/GjZO/UAFi5arb11g0of6+XVredqT/MH6j1Ka9wndYHYb32wIDaWn3JgPC4xgjcNNBZmAcQWZgrCQv3LYZK5ElcEdjrKS+lAeeCv9iMSBprORdveJDTfQHZCezRgFD5BfkgTLUFP9voiyUG1mH7wa/wfXXb17EN0P+wCK2iXGIvPhLojR5Jk8Oga+jbCJfFJo+VmHSe9Ku9Yq/pL3fX6cuuDI+9NBDMU/J86zxcc7gRfQ7+rSXc+FJJq/hfk0fxdoH+QNPIfohPJo+zX34IPNE3LsZu+Bbpuhig7cqbp2+jmaFnzYOotxlLgI/IUyJrwv51OWX4FSEGNvhhbQrwyV8Li8vxgjwQnY99dRT47JjNYm7LWNmOE8M80/7HY51aen8dXDbcccdo5Wnzv/h/YylfP8QX54JeXaRMYbnaEsoRlG0IrNXVcDTZjfffPN4AZzyIndlxWHl3Z4Yx2iztGks4JnbIbsj/9M/knhLmfG/bp9CjrA+h9EERCgs+hzusaGsULfNe2w4L6NDCJ/lN+2+yFzey9FJ+fTqWmOunb0q8Gh9DxMfm+CBAR22iqKoCH7hu0I3tCJ5DGoamKlXrBJMEuGjCDEw+80pYFoMEKLRgwCCCytTrMIzuWS1F2ZflBBCETx8sOaiz6alY7KPxZIJblWUJ2l5t+k6bpsI4igyWdTJEgZRpDFJAAv6d13LaGKPoASgv6MAqEooK1hJpy60gSJBl1FSM1k95JBD4g00iryb2D8If2XaZlK+ddt7Up69vsZuxRYIG4sGsCxKxABDIWlWAEXDRBTNX+kGC4Gq/YGJD5NPlEooEpuksvy/W2VhoRGei/IbBUI4mW6yzm3Ka5D5C3MO5gNQ0VAHbcJeZWkPAj7UEQrZIiEw2lN6laQMAqNNh9CYRVoZkJW2PAIm6PMkq0jdUqKRv38XQg/a8dFCCLFga9aUMPuibpbEkzBiFVJKNENj9ByxJGF1tirlrRBXyZfVnbyVzSr5tu0Z+pvtChta/IVlxeqPv6bIK9/r5Mnksqy7LbH1sGIpw6erWl+Gdavb3sP8+vHbuxFhScVqapYS1pcRZTkWL6ZICy0dfVqdDz8CVfsDCm0sKrtBZfl/t8rCokCRhYFuYNDPPAeVvxD6A2tQIyxEREKgKgIYfxjZhkH2W8fhQmC06RD+F+1zuL7jUNUGBuR3KSm7q2AZMMJ3VTWdLfPOtqX1puVsVkBg3DxiNdkHMSU4s0gICIHeIsBENk+J1tsS9eZtZZRovSnR4LzF83sWUPzGIXm1wE3C70anyWYeYrovBEYXAoPIX7CMJlSFuXPjUlfH0np0fXHVNkSAmMFsdGTU1MKj5adjexAYjTqErlukIWjutttuHZ9h4mIQFFiUjwBxT7bZZpto66237iRmQCNuSNOU9C5WJqvEamq6bL3OD/dMYlpBuIlh0s5OnuCOL7knrBeIbUR8EyPS1A16bXnpKAQGHYGDDjpoRHycsD5YTBx11FHhZf0WAh0EEM5ws88iLPOIuVWWiAFKQHfi5UDslosb2uGHHx7HJ0vKD4Ub8Q6J3+ZjeBLXrZ+kvpaPvmTSfIyUojkEBo2/4PY/ceLEzk7GIMEmC8SmGlYST+jOlyUuImE2/C6mhNHopjFId2pSLlfmg1i3GxEDD8v1YabRrEPouiKNgJPemooA7KJ0BAjOSmwt4uQQ3D8MWkhQagK5N0F57yLgLXF0RhsRdBxLPCZKEJMmgnizqw6xPQj+zMYPWKr5QMqGE0o3YgCIhIAQiOLgs8R+SyPiyEmRloaOroMAgYvzdlqro8Q6+uijo/PPP78ThJdNVgjuj4snQd9tExo2jkFxRhBl2/zHvhAbAqQFuLY03T4SOFl9LRtlyaTZ+Ohu8wi0lb+wQIE3BQRfI74rPM4Tm9wM+/gsnuC/ePnzCRMmxBs92ZOMjcxfGbfNqtHusdnDsFvQs9GDl1fYwGUYFWnSIbzZqruuSLPOo2MxBNg9ZKWVVkpMfPXVV48IZp+YqMTFrHcRdJkdlUYrIfgwIWEnMSMCCRMLx+Lh2HU7YsFHcFYs2ERCQAi8iQBWtFkUWnlmpdW90YlAXhsClTrtiMWpI488MmL3V68gY3LpLc6S0Ifvw/PbMF7m4VQHo6S665oQEAL5CLSVv8w+++wRG+WkEbF+4YnEghQJgTQE5p9//sx2xHOMk3j6EM912Im6jgaSDuHNr9x1RdrkyZPjndSsUd111112qmMCAkk7NmEFhSUaWu0mKeldWFudeeaZXXEfbbLs3c6LQOS41bKNN9tJJ23h7MvAluJsPy23ZY+KzoVAFOFulhWEHYs0kRDIQgAL4TwlEBZhdcjCTuDWZG6eWfmxMQSrzMcff3wll9KsvKveU1/LR04yaT5GStE8Am3kL2mbqsDbiIl23HHHDbVLp31l8QRDotoxaS7pc8KziYWm0eKRds0118Q7whsGzA+HkZK++2jUIUw31QRxdKhOB6QVL7bYYhGBGfEjJyYBO7g9/PDDsTa/6Sr08l1Nl72X+eH7jastuxjhzonfPysOrNbxjWCSfmemXpZN7xICQkAICIFmESBGGvweVyfcOKef/s19mdjRGVdPAohPmTIlYsIpEgJCQAiUQaAt/IUFLtzyIKxZmRgj0xLXbTTs9B1XXP9qIzB27NhpPKlwCcaSESXlc889V/sdyqB9CEiH8OY3kSKtfW1TJRICQkAICAEhIASEgBAQAkJACAgBISAEhIAQaCECby6ztrBgKpIQEAJCQAgIASEgBISAEBACQkAICAEhIASEgBBoEwJSpLXpa6gsQkAICAEhIASEgBAQAkJACAgBISAEhIAQEAKtRUCKtNZ+GhVMCAgBISAEhIAQEAJCQAgIASEgBISAEBACQqBNCEiR1qavobIIASEgBISAEBACQkAICAEhIASEgBAQAkJACLQWASnSWvtpVDAhIASEgBAQAkJACAgBISAEhIAQEAJCQAgIgTYhIEVam76GyiIEhIAQEAJCQAgIASEgBISAEBACQkAICAEh0FoEpEhr7adRwYSAEBACQkAICAEhIASEgBAQAkJACAgBISAE2oSAFGlt+hoqixAQAkJACAgBISAEhIAQEAJCQAgIASEgBIRAaxGQIq21n0YFEwJCQAgIASEgBISAEBACQkAICAEhIASEgBBoEwJSpLXpa6gsQkAICAEhIASEgBAQAkJACAgBISAEhIAQEAKtRUCKtNZ+GhVMCAgBISAEhIAQEAJCQAgIASEgBISAEBACQqBNCEiR1qavobIIASEgBISAEBACQkAICAEhIASEgBAQAkJACLQWASnSWvtpVDAhIASEgBAQAkJACAgBISAEhIAQEAJCQAgIgTYhIEVam76GyiIEhIAQEAJCQAgIASEgBISAEBACQkAICAEh0FoEpEhr7adRwZpAYOaZZ46+8IUvRAcddFAT2SkPISAEhIAQEAJCQAgIASEgBISAEBACQmAUIzDDKK67qj7ECHzkIx+JNtpoo2idddaJZp111rim5557bvT8888Pca1VNSEgBISAEBACQqDNCMw555zR4osvHo0ZMyaafvr09ewbbrgheuKJJ9pcFZVNCAgBISAEhMCoRUCKtFH76Yev4gikK6ywQrTppptGY8eOjaabbrpOJX/zm99Eb33rWzu/dSIEhIAQEAJCQAgIgV4isOSSS0bf+c53MhVoVp4XX3xRijQDQ0chIASEgBAQAi1DQIq0ln0QFac8Au9617ti980NN9ww+tCHPtTJ4L///W90zz33RBdccEF02223RW+88Ubnnk6EgBAQAkJACAgBIdArBAg1ceSRRxZSolGm119/vVdF03uEgBAQAkJACAiBkghIkVYSMCVvFwIHHnhgtNZaa42wNnv11VejK6+8MrrooosiVnRnmGGGaOWVV47GjRsXC7GvvfZauypRoDTUYaWVVhroOhSoppIIgYFAYMEFF4wWWGCBuKwPPPBA9Ktf/Wogyq1CCgEh0D8EVl111ej9739/XICf//zn0Y033pgabuJf//pXfL9/pU1+81ve8paIP+jf//539J///Cc5oa4KASEgBISAEBhyBKRIG/IPXKR6uBpssMEGsSvkI488Ep133nlFHmtFGgRTc9l88sknY+uza6+9NvrHP/4RzTXXXNFuu+0Wx0l7z3veE5f39ttvj3784x+3ouxFCkEd2CyBWG+9rsM888wT7bDDDgPZLopgWzQNLsJf+cpXOvgff/zx0W9/+9tpHv/85z8fK2y5ceGFF0YoWDyB53bbbRdPQphEnXrqqf62zgcIgc985jPR9ttvH5f4pz/9abTjjjsOUOlVVCEgBPqBAIt+Rvvvv3/02GOP2c+BOX7pS1+K5SoKPHny5GiLLbYoVfZ+yBUo/liIXGWVVWJ58dFHH42ImdsEIZd96lOfiuaYY47oHe94RzTbbLNFs8wyS3TKKadkLrB8+MMfjuW6ueeeOy5GmlzBTbwukNGJqUd8PeL+Eq7kl7/8ZSxnXHfddREeGKLRiUCRORxtZu+9946win3llVeio48+ehqwJKNOA4kuCIFcBKRIy4Vo+BMsvfTS0ec+97m4oigNBkmR9te//jVCOYbiAqFuxhlnjIWl9ddfP6JePk4aFVx++eVbr0hrSx1QDA1qu2iy19KGNttss06WkyZNSlSkbbnlltHHPvaxON0dd9wxjSKNe6uvvnp8n7YqRVoH0oE+ob+KhIAQEAJ5CEyZMiVWujz77LMDqUQL6zfvvPOGl3J/91KuYNMpFiLXXnvtzkIYBSSebl1FGvl+8YtfjNIw+N73vjeNIs1ku/XWW2+aOL7EzUtaoOMdO+20U/T2t799BLb2XkKabLXVVhHeGc8888yINPoxOhAoModbYoklonXXXTcG5KWXXkpUpElGHR3tRbVsFgEp0prFU7n1GIE111wzfiOrenvssUe8wsfqXRL9+te/jh588MGkW624Rh3M+mxQ69AKIFUIISAEhIAQEAItQ+Ab3/hGdPrpp8dWIS0r2lAVZ/z48dHGG28cKy3DxdS6FcXq7KCDDopWW2211Kxwef3LX/7Suf++970vVrqh0Jt99tk71/NO1lhjjdiKKC8doQZOPPHEuM7+vXnP6b4QEAJCQAjUQ0CKtHr46ek+I4Aws9FGG0WYNicRAs1PfvKT6JJLLolwwWpjPI9hqEMS9romBISAEBACQkAI/A+BP/zhD//7MfWM8d9cw4ntevbZZ4+437Yf3//+9+MQGpSrre6E22yzTbTQQgs1Dh3ucXhsEHLDiFh2yJZPPPFE9MILL8QKNBZtcbs0WnjhhSMs1ssQCsC99tqr88g///nP6JxzzoluuummCE8MXEMnTJgQLbvssnEafmOZdvLJJ3ee0YkQEAJCQAh0FwEp0rqLb+HcWeXCrPa+++7LfYZBmXgKRj/60Y967iZGzAl2yPTCgpWnl9qhfUYAACb4SURBVMf99tsvjh8RvpMYVJdeeml01VVXRaHgGqbtxu8y37OtdegGLsqzPQgQWzBvsoGrCPEGh4XawDuHBcu21eOyyy6L3va2t8XFYvMHJtODTN0YY8uMS4OK3Qc/+MHoT3/608Dwrfnmm6/jHgh/apIWWWSR2F0wyWWwzHsYKyZOnNjZKCHp2XvvvTfCPbENdPPNN3fGtscffzyCN3ziE5+IN6aqU75tt912hBLtlltuiV3kUJxlEbvH/+1vf4vdM1GCEceXMmaFd/joRz86wh31hBNO6CgweReyN/OF7373u3HduPbxj3+cQytp2PhzK0EeskLhmp1lwQmfZ643TMSuzosvvninSptuumk8nnUu6KR1CEiR1udPQtwDAroTSJRJAEGsYQ5ZNNNMM8VKLEuTxWgsTZNHdpAkUOUKK6wQr6S2yV0S6zNWTO+///4mq1w4ryrfM8y833UIy6Pfw4nArrvuGrubZNWOWC4/+9nPspIM1L1u804sFlhgYNKEMqdtFrDwbtyMGDOwpGACOCyuQChQCKQMvfHGGwPVLsPCNj3GNjEuhWVs42+CvmORw/i/5557Dnw7qIrx2LFjo5133jlWsBAL7Nhjj62aVfwcO41afM+0jOoq69LyrXKdxWX6EEH4n3/++TgLiylWJT975rOf/aydxm2MTYjwesgjFqNQhP3973+PLcr4zViRRd7qjXRJm2Qxvlx//fUdRRpK2bbSMPHntmI8TOUivM1FF10UIbOlEW3/q1/9atrtgbzO5iXIkEbEcxS1GwEp0vr8fRhM2QXJaNy4cdHFF19sPxOPTIA8hb/9vW6cszKJwg/65je/GZcfk/Z+EEpHH0+MCSK7d/aLqnzPttWhX9jpvb1F4J3vfGfuC9vqupNb8JQEIa8Mf6c8lnmZPv+1r30tIoi2X9R4/fXX40kcsWuw1ugH4e7z9a9/PVaemQLNxwzi+8K7CYyNW1nbFH9lMPMT2ia+a5l3N5226TG2yrjUdJ26nR9KBHZKRJm64oorxn2S1f1uk5c/XnvttUKKlW6XiU2CsMCCUP7gwTDIfbssXixinHbaaWUfy0yP9TbKIKMzzzyz1LfOk+stXzuys6InFINJhOWqUZv53jDxZ8Nbx+4hgGFJlhKNNw+bfEqdfD/hd5v7NOUTRVEyZxYyPUOALazZinuxxRaL38lkLG/AxVQdaxKbED311FM9Ky8v8q6STMYRXtlZKBz4e1Go3XffPQ7e+4EPfCB+HcIjAhSrsZjQ95qqfM+21aHXmOl9IxHA/QpXmm73J9qqrdaPLMGbvxjAf/e73yXdGthr3eCdCyywQMRfSHxD3PVxd/r2t78d/4VpevF7ueWWS30NYwiWGihu5phjjsYnn6kv7sKNL3/5yx1FJm17kKnpMbbKuDRo+GEFShwps0okdioKlW7GHCNGFZscGfH74Ycftp99O2KpwcZF0Hvf+9446H6RsCFpBaY97rbbbmm34+ttskjLLGjFm95tEivehx56KHalxAUTSzOsSFiUePrppxN33yz7WmKuka+157XWWite8PD5oERjzmD0i1/8wk5bdxwm/tw6cHtcoF7IqCiUsuRTqkwfGTY65phjIjaeg+j/LM6I2o2AFGkt+D6YbJsijS2KUQplTQTQwt9+++19K/lJJ50UzTnnnB2rNKwecKcgfgQdv5eEfzzvZScsWy3stzKt7PdsYx16+Q31rihCIb311ltHWBJYO6ZdEFuFeCoPPPBA4zChcG561b7xQjacYTd5J+46kydPjhX4uOV4V6Ltttsu/o5TpkypVCMs3TbbbLNo+eWXjyds8FkmbLjVE/w6zZUR100mV0yEianDbwQz3AUoI5Mwm6gRU+zqq6+OXnzxxUpl7PdDLEgVpaWWWiq21MlKj0XhSy+9FMcyevnll7OSNn6vG2Ns2XHJKsWkCaUMVugoW2ecccYYF9oy7eXuu++2pJWOVdt2+DKUZih7UFxbrDwWqbiOYqkbhOzTRsIClj6PmxBEP6+jSIPf3HbbbW2sas/K5C0P6RPwXc/jrSAoAIhbdsYZZ8SKXbte9shC1iOPPBIts8wy8aO77LJLxHuvueaa2B2f+FHbb799vFhjed9444122rpjGf7M+ISCGpf0NGIs/+Mf/xh7oNA208bAtOd1vRwCvZZRWcRdf/31yxVyCFIjfw2qDDYE8FeqghRplWBr9iGEPGItsLqEhQCm+LjatJVwEdh///1jdyFTALJax9buxCXptQsBE0WUaQgupoTopzKtyvdsWx3a2vaGsVzsusUqFO5XnhCU+WMSi1B5xx13+Ns6bxECKLT23XffEZYIKEVxLWNSAG9nR7WDDz64dKlnm222eDygLRgxqUOpscoqq0SEA8C1NCngNZMLLBnS6Pzzz49++MMfxuWjjIsuuujQC3HUE3fXeeaZJw2WEdfZOY+xjXgtvaJujLFVxiUm7ixSYVnpifZHIPs111wznsgSELkK1WnbSe9jso5sQkww+h3y1OGHHx5b1mJBNFqIfs/3tu8Cj4AXhW5DowWPJurp3fbJL0mJxnVcMFk4YbGZjaTq0FFHHRWHT4FXYeGM4oy/JGLnUHanHwZi7Cyzy+lzzz0Xj6+y3unO15eM2h1cletwICBFWgu+Iy5cWJ58+tOfjkvD6mERRRqrrphLG2FdkmQRBhO0vDGFZUWrLmF9weov5bQJ3korrRQHfmTS0QQROHjllVeOs8LE9/LLL0/NFmuLppVpvJsyQAjh7LJUhKp+zzbVoUg9fZqibdE/05ZzXDPWXXfduDi///3v4y3me1U2BEYmemnxTygH94477ri4r5e1TCNu0DrrrBNXBx5TRxmH6wpWURB8pog1G6voFueCTUCy3H+WXnrpeAMT8sfSJXRZz3s/ynzwhLDYzYpL1mR7ZdKKIit0g8WSELdKU2RVCQQNdlgnGY+NKxf8Y9HgsMMOiydvwa3cn88++2yMs7ktmUtB7oMtTpDX5tZee+3CSjSqieKNCTH837tchhBUHS/CfOx302Ns2XEJS0XCNoRKNCufHXGnrELdats33XRTHBOMxUkIBQSxXJmYN73ST77f+ta3OtV/9dVXO+d2ktceLV3TRywQTZGGNQkyYBGrsl7y4bw6N8mn896Vdz9c6CI9CyiMq1iPEUNt/PjxnZAryPHsHF/HEpD2Siw2ZIQ8YpwYBKusvP6Axauf1+TVm/uMrTyTNfdomj8XKVdTaYZZRoUvE7+VcYS2njSHLYojFmxjxoyJkzMOZLnZ94PP5bV9X89Bbq++HqPhXIq0lnxlhB5TdiG4MnHK29aXAYfYZEZYZCUxIbbStXTsZtSEIo13EiQfxoAyzVbrNtlkk7jcmL3XJXCwcrOTZZYijXehiMI9CWbchGUajNYUB2BdVJFGWap8z7bVgfIUpaJtsWh+vUyH8sDaGSub55xzTk9ev+SSS3YslnghVii8+5Zbbon7MTtm0p+wqmBCQdsuq0iDj1jdUHTXUaQh7FheuFQUUaQxkZtlllliPOkTWYo0lDmWP0qzffbZZ8R38O+H94TvR5i253GR33zzzUc873802V6Z7IRKNHsXVgKmSMNCoSzh7vvJT36y89hdd90VwcNxeWHhwPgcroosmKS52bHrHuMAYQNw9/KKW1Oi8ZIsV5pOIVp+ktfmUDx6uuGGG6LHHnvMX4pdqOD/hj3WTQsuuGAE/mlUZ7xIy7PpMbbMuERfsvpTPnjjD37wg9idiv6JNSTt7sILL0wrfub1ptp20kvYqRK3Sxu/sXw79dRT499Jyq6kPIpcIw5rXizWvPZY5D1V0tCmsXS33R9ZZCiiSOslH86rV5N8Ou9deffhAZ7YhTNc8IYHEA/T0uJdUkeRhnII6zZPKMtQstu4aveQ/9m4jH7aZsrrD8T0g794AmtPFtsTHoSSGPLjmE9r593gz5Z3t4/DLKMiH80///wxhOwQzxhVlVBkmys0vC9LkdYPPpfX9n29B7m9+nqMhnMp0lrylVHSoASzeDUIPcT6aDuh7CMOCWU1yxPc0FilywsU2Y26EdMGhQNChQ3G/XDzrPM921KHbnwf5fkmAgiLRx99dEfgRsHENt5+4Oc+AbRpzxDtGAG9167Tb5Z45H8E2baRL5M/73Y5USqmkY91yWQe66YyVgMoBI1YTPCu8/AYFhdsIoGbXahIQwGLtRz3mJSKotiCiHhfZmGCAvbAAw+MJ6ceH8a0+++/v3OpXzuENTnGlhmXzBobAHCZRHFL3DgjXILBEB5Vheq27bx3YsWLonnVVVeNk6LIpi/g+jlaiEVTcwXEwgH5MmmxtUk8PO/1502+o995MUkPlWiUCStoMF9jjTXiItax8GXhiHAARvABQkDA4xlD6Hsoivm+jCso1pC9WdweZCIeJdbrKAWN/vznP0dXXHGF/ewcsQTcYIMN4t/94s+dwgzZiWTU7A/qeZs/z35Kd4cRgZFLLMNYwwGpE8KoXy00F6VBKD4BURFObSDDleLQQw/tmLj3ug6miPIBok2ZRsyXXlDd79mGOvQCJ3sHq1KYePNXNHaRPTuIRyZ4FgiaHcB22mmnEUo0qxMKYVOcIShXcQ+0vHTsPQJV3d4oKUpTv8qOpYO1Be7jquetgZIs3nBJJMaeKdGYgGG5i7UKfJu/Ji10KJcnLCKtX5v7tL/fj3OUm8QeMoLfsAt2SBtuuGHnEhM2NnfoFzU1xhYdl5iYW/xT6ozbmFeiGQ7EJCqjGLbnmmjbllfakb5CLDxvbYiCY4UVVkh7JPF6G9twYkETLnrvA6xNy9Y9IUtdmopAFi9gZ2ijOptRYF1jlsPEtmMRBYty62/0vUmTJsUbG9j78GopK+O2UfbCetQvxLPIaNbXVlcUiWPHjrWf8UY/nR8NnwwyD6gKhWTUqsjpudGGgBRpLfri3qSVQKYLLLBAi0qXXRR2C2IVyYgJoLkU2LVeHtmpi9U5P5FFmcZk1CwRul2eut+zDXUwjLq94sJkm6De/OXF5LEyDcMRoZhYPl5o9PXCesArOur0KSbHot4iwKJCVULB410tiWcW0pNPPtm5FLYNJlRmGUEirKtWX3312DoNtz1W/PnLiiXXybziCYpf69e48rWF4M0EYzfCsgNXayOUjxZji2soLFFc9pOaGmOLjEu0JbOOp85Jba8OFnXbdtF34wLHd/RByIldVYba2oaL1OGFF16IN4OwtGXrbs9169htuaLJcvtFDFsES8rfu/raAkZSurxrfmHkmWeeSZURcPU3QkEdKpzsXtqxjbIXSnsWgVjAgFhEPOSQQzqL81h3YzFsYx4LBN0MyTHIPCDtuxe9Lhm1KFJKN1oRkCKtRV8ek22/6pu3go/prREDiVca2fVeHk8++eQRbh4LL7xwY6/3W48XzZRVwyuvvHJEcnYaY2tyj92IBO6HF5aqTKLKfk/36s5pP+vgBUeCnWaRx7MNbTGrrOE9/53De2V++5Xgou2VQNWhO55/57vf/e4IodGobPwT/w1ZHTd3Z8uvzNHHZMGNO09JRBo/kfD1SHov8buMcGsJyd9nku8n+qT1bTAPf5+2bntN272NMvkyoxA1awLu5RFumZ6YJIXkY7P570M6FNJm0cBvrLC8qynXIJ/mzSuD+79MmyOAt+HHhJ6JGhjusMMO8e6qhjdhCk488cRcUDwfqTJe5L5gaoImxtgi41K4qQI7xDZJddt2mbKwm62fZDcpl5QpR7/S4hJutPzyy0eMKVnkeVYVPuz7QdJ7/Jg0SHKF550WxiSpfn6MZfOiquT5OWNUGqEs9tSrhWL/zqLnZfgzykO/kQfWZxtttFEcPxq3WltwZUwlnqr/Pknl8e2yW/w56b1NXPNlr5qfl08JB1F0YbWXMqoPJ1Clnn7hsU3yJnUp0/ZJ77/5oLVXyj+aaFrJfDTVvmV1ZWJqwjtFY7c9gkSnkV9dhCl6JVzaM928DuPyAnKTA/qiiy7aWX0qU4ckN0FWlwiajFItjRBiVlxxxc5tL/x1LuaclP2eadn1qw5eMEFZ4JUPYVnb1hbD8mX99lY7NrHOSp90j6DctjrKfdwy8ghrIpS6aUSfxjXJVu2Z3JbddQ6rRk+rrbaa/1nq3Cv2UWL5/pGUEW3CK9sIvJxG5Oe/A25lfkWe59iRyQihhEDDnogDZsRkhuDwadRke4XPpU1OCcZuhLt2GcIF0xMxjkLC5SeNQgWZ/xb+mUGyfPblTjov0+ZQbB588MGdbFA0o3TAzdqIzSJwqcrCmbRNjBf2zqxjE2NskXEJCy6vBCDukpdNsspY5F7dtl3kHT6NVw5ZTEF/f5jPvUzGwsaECRNSq9sEH8bq1ShpPG2zXEE7YRzy8fusLn7zL4Kje4WZpWGs9uPilClT7Fbpo38fPNorQnxmbCLjKStmp0/Xj/My/JnynX322SNCXmClhnWwxZ7DeGDvvffO3ASGfHrFn3lXN8jLRkl9qsg7bdMj0iKzeLfYtOd7LaMSzzKUW9LKFl5njsI80ahN8iZlKtP2B7292jcYLUdtNtCjL42AwvbYScTgy8ock1zPROhMZ511VnTVVVfFQi07mkAwDCaaflLMBLuKsiepPP5aVrktHYI5bpMEcPbCdpq7mj1X5ghGrMZfe+21EcoBgr2mEeUBH9xLvbuOT4/5O6taYMvKF/kxeeA97G7IjinU3SisSxYuZb+nvcMfe1EH/76k8xBj2uJFF10UodCx+HO9bIv0kTKTINKCo58Q+noiCDPY+p3pwu/s09s5K6G22oWyi7ay9tpr2+34yIBugYFxz2Ty4GMOkeiSSy6Z5hrXmfggKBJEF6WvUdkdO3kOYRy+YP2SWFAod9ip0Avq9o6kIxYcCOsWtNvSELgbZfTkyZNjFwxzQTUhIIzzyAQLvG699db4yHfBcgysmHx4xTt96JRTTonYwpx+SewXcPaEyxaYUjcmNmPGjPG3Y/zp30wsaK98h260V3j2kUceGe27777xTsZWCOrk20WRtmXPciTAMrs22o7IEydOjPEm5hMrlHzXLOsa66OWJ9/Du4KCMbvCNW1tZO8reqS9lFXm0VaILWhxOfPaHH0HNyEw4XuhiMXaJhwf/PhL+XGnZGxjkcrGV//uouNFFhZZY4k9V3SMzcqr7LjExifjxo2Li4AlE/z/0ksvjWPsGe5WPixmsuJGWTo71m3b5MMCk/UNyzc8wuOZMHrFeVmr3jDPNv3OwgDFCxYePtYfZcetG/mHMQBFBPy1CT5M3ozR3soM2SqktskVVj76NTHlbKxkfAEjI887UUgedthhsfuhKTa4tvPOO4/gyUn1t/zyjr6dIsscccQRcexhby0K//Iu6Nyro7xLK1Nd2SuPP3uZAPzBku/BeM2fJ68YfuKJJ+IxABzM2hus4O98lyb4s3931nkT41iYfxUZlb7slav0deaKoeLsgAMOiDdwoI3CA8CvHzIqcpEtivLt8CIi7EJoOR1iY78ZA2z+yfc2os0yZ2QMZ+xm8aYJPpcnb9JvkRdsU5e8tu9lk162V8NJx/oISJFWH8NCOey2224RW9+WJawy/Ap52vNJO9qkpS1zvWq5URz4IL9l3pmWlonyjjvumHY78zqCO7sfYoFgqxYwRKz+8oi6hHGEquJS9HsmlanpOiS9w1976KGHYmULgVYhjqz+5VG32iLfLhzo88pS5j6CROgKnPQ8Am0RQnjxyu7wGQSZooR7EkJBWcLtgxXcTTbZJH4URQGTYv7qEoqILOuGMH+EWxRLXrkUpvG/6e+2Y6m/bucIRVYvu+aPKCOL7GDWRHtly/Wrr746QigiRg7Wid7iFUEuy/rQl9ufYzlrdcBtgXg2RQkLOARkJiQQz6KMREDFwoqFDz/pLZpv0+no096Fp8n8y7a58N1l+qg9mzRe2L2kY9WxJGmMrZpXkXGJBQe/6ODrwoSWOHNlqE7bxu2FRZ1Q8Vnk/V45UiR9W9NUxYDJWt7Y5OtclQ+jpPPxuyzPtskVVi4m46ZE4xrKCN9WmPDD4806COUN8oJNnFFqestkduL2m8HYe4oekTmJcWceCSzw8n7iFWI9izxo9yzPIvKLpS1z7JbsVZc/84280qhIncry5yJ5kqab45iVoYiMykJpEVmDBbS8uWWZ8a+qjMqC8uabb94xXKBcyJVlZEvDJzyyuUrRDVaq8jl7Z1F509IXbfvdaq9WDh3rIyDXzvoYFsohXMHNeojB069GZaXlHgMuW9GnEVYgRmV9rcuU297B6jS77FigULte9lhFSE56BwIdEwww3W677WJhJCld0jUUEexA6gPIkq4MLmW/Z1I5ulGHpPf4awzaWFXx7qKU1xaL5IP1RRIlxWtJSlflGt/ztNNOi60Tqzxvz2CVYStRdq3uEYUIgdrDlfyi+WLZ9dRTTxVNnpmOupllbGZCd9Ov5LvLiafgxwQkjbiXlR8r8n7FPi0fu95Ee7W8bOUR6xevROM+1q9lLdJ4DoEY98IqBP/1Ciom0FhT0pa23377nivR0vp1VviCKvXmmaw2kpYnK/NMBupQ2niRlWeZscTySRtjy+TVxLhk5SnT5+yZOm2bFf8q8gHWCRdffLEVofQxrQ1nZeSVM1npyt4rgwGK/FtuuaVjtZP3rrp8GNnh2GOPTQxF0C+5Iq/OYRtOcpE84YQTRlhyYwHKwiyWf16JxjiJxVooN+aVwd8nD0I7eHkCayzex7tCJRqLOOx2WYfS2nfTslcV/gwObJhjlsFV6lmFP4fvScOoG+OYf3cTMirtsYoc4suRdF5HRsVKnHlG3fmilQv51PcZu550rMvnysqblKFM22+ivSbVW9eaRUAWac3imZpb0qDsE6OsQJBn62wGQ4QN3LAYNHF7CZk3q1EwREzR0ehnDS4+1hADf0hZTCev3JYXgj2uYriDnH766aUms5ZHePTlphwI/kwEk+oQPkudHnnkkYjVT+LemCIBxrT//vvHq9lMJnH/xJzYmwSDPXWB4TERTVJg5OFS9nuG5ed3t+uQ9M7wGtutY2mACxjtkJVQjxXpy7TFMH/7jQubEe9IIqxoQmGXSQqWSVUIwYTVHhSsuC09+OCDidmQjm+R1u5o+7QVgpKfccYZcXwVLKVQppTdQcsKgHuGtd/bbrut1o6BuMCx4odF7MpT42yx8pYV787KYEfqTx+gjueee26E9Ql9B3dL+qNX1NszfCf6HCv6l19+ebyKz0o+Fi1YVpGntSPKR1rjHUwSwA9zf1Yn4W3wOt5vvIXdJllpxLWRfOw+ylBoq622iu/jGhFOZJtor55n7r777nFZceX0kynKDR8hUL0P+G0YFTnCi7DC5butt956cf8Dk6S2mBTH67zzzos3gMHlKBT0URrRZnF/pd1CYf8qUsasNGBtxPtx2QkFZq4lvZd2klRPyy885rU5S893gT/TbxHiGXcvu+yy2IKaiSoBrbHYpJ/wflaOw/HX8uJYZLzw6cPzvLHE0hcZY/PyamJcsvL4Y9L38/eTzuu0bSwtae95yjS+NTye0BdYsOEqXpaKtOG0PFFA+DZMuZuiIhjQx+Gb7NQKL4ZHwUfg28QDAx/jj3X5MPkwTmAxxY6K9Ks06pVckfb+pPbKpJr2wbjNgjNK15B4DldZLKXBMRxHUVTceeedEQq3Mkp5+oKXgey9fDtiW8G/GQ9DWYfvh6xw5plnxnMBfpcl/95uyl55/NnLBCiJ4VXwM1zykIGwbqSNYvnFrspYEDLewp/5s3Yc1r8ufya/IjygqXHMlx9MisioXh7xz3Nu8htyG5uuIO8iz2PJR7ghsKtCtLumZFTG30cffTTadttt4zAdWPSXKRf9DhkSZfKkSZPiNoK8i4LbB+2nnnX5XFl5k3fmtX3SGDXRXi0vHXuDwHRTJ8f/7c2r9JZ+IYB5ucWgYaKJkDMIxOTOYtjgBnLccccNQrFVxgoIHHjggZ1g8sTBI95UUUJZhdWVxRNDecAKl0gI9BoBJjq4QJvSg8lAN4kJhQXMZ6GB32mEIovFCcqEEFzHWiLtHeF1Jpp+QsqGFby7CKEkYbKKVQbEJJE4fX7iVyQfpRlMBMq07W7WsE4bXnbZZUdYheJajZJANBwIYIUMv0eJglVOkoKuyZqiOELJwOIV1tko65IWUMq8U7JXPlp1eIDGsXx8lUIIDDICcu0c5K9XoOys2hCI2yjJusrutelI7B4fjwUhRTS8CPjdKFk1D1eRsmqOMMkquFFoeWPXdRQC3UaAFXRWaWmP3VaiUResAo3CzQXsuh2ZeGF1idVzL5RovJcNJVAqGmUp+iyNHZkgYrlihMVBGb5gz+k4mAiUadvdrGGdNrzFFlt0isYmSVKideAYihP4KFZjWNN0W4kGYFjKMb7Ax7HUqqtEI0/JXqCQTXV4gMaxbGx1VwgMOgJSpA36F8woP24quDGaCxVujZhIt51YwcEKwdw2sES4+eab215sla8GAt4NBJeuPfbYo3BuuO/5HR0HRVlcuIJKKAQSEGAXzvHjx3fueMuvzsUWnPi+jZt4GNsnq4jrr79+5zYuKigjRMOPQNvadpU2jDXlcsst1/lYBIoXCYG2IeDbtmSv9K/jcdI4lo6T7giB0YaAYqQN6RfHJfKggw6Kzc6tirjM9coSwd5Z9kjMsokTJ46worv99tvjOAFl8yqSHozYJj6NsDA56qij0m634no/6sA3QuiCiB9RdCfLNMAIqM4q6xJLLBEnIS4I8WUOP/zweOU16Tnez86DxHvwlireiuXoo4/uKJKT8kDpVmU3zKS8Ruu1NddcM469Y/Unjpm3ELTrOjaDAPxqhx12GLELNHydLePbSMSZJG4JhAsUcfaIIURcFOKBJNGCCy4Yx2b0uyoTaDorFkxSPk1f6wevbboObc6vrW27TBtmLNpzzz0j+KIR1qlN7A5s+Q3rsWm5YlhxarJe3ZK9mixj0by6yZ/L8AArb5FxTDKqoTUcR8nDw/Edy9RCMdLKoNXStLhAsPoJoXyYd955o1lnnXVEaQlYSZDUV199dcT1fv8g0D+DH8In5Z5tttlGFInyEvy5TODWERnk/MDSzQcID5NjAbH66quHl1v1ux91wLKRbwfhMrbaaqvVxgSh4/zzz58maCwuE+zEYwFfaSO0F4KuY3XpiXKxQ6sRyrm0ILSkIQArq4ui6gjstdde0ZZbbtnJgMDId911V+e3TqohwPbvfvdP2jrxcQgIbda6ljMWvAQUbysdf/zxsdLblw83NzZjMBclAvrDixnDCITuCatkNph47LHH/OWen/eD1/a8kj144SC27bw2TP/E2jJsu8DJQhObHYiyEeiGXJH9Rt0FgW7IXv1Attv8OY8H4MZZdhyTjNqPltK9d0oe7h62bc1ZFmlt/TIlyjX77LNH48aNS30CJRqucm1TolFgJkhpZSeo9D777NM1JZq9PxW4qTfSLCaynun1PTDMom7XAZerJohds4488sj4m3sFGUoz/rKIMmDpElqXgU2WIq3b2GSVeVjuNfX9hwWPpupBbMs03mjvAHusvdqsRKOsrLqjJGOnMCMmHGwQYpuE2PXwiLLtgAMO6LsSjXL1m9eG2Azq70Fs21XaMP0TC10p0cq3VI0r5TGr+kQ3ZK+qZanzXLf5cxUeYPVJG8ckoxpCw3EU3xqO71imFlKklUGrpWnTgpziToC7D240uCi2kdiKmNhtXnHCqs4tt9wS79KJErCbhDVcVnD6QYjJ0486nHjiiRGxySAEhKbo4osvju69997YvdfcPLPypq3gRshKIa5fIe29997TbBnv07DToageAtdcc82IwPoEQxbVR4AAx1mENSWK47vvvjsrWSvuYbW6zTbbRJtsskm06667RjPPPHNuuQiszfh10kkn9d2l0wrbD15r7x6m4yC27bJtGD6IOxiuc6JiCHRLrij29tGdqmnZqx9odps/l+UBYJA3jklG7UdL6d47JQ93D9u25izXzrZ+mRLlQhGEqwSEhQ1CKju4McF67bXX4utt/rfTTjtFbCNOuVGcUW6s0USjGwFcvNi9FZdf3DjNsoxdAHH1JPjrlClTGtm5anQjrdq3EYGxY8dGK6200oiiYVWMm/vkyZOj5557bsS9Qfkx00wzRXPPPXfct3GFsxiVrOSycEG9UI4zARENJwKD3rZ9G8bdmg2dCHWA3IIMwy6OjE0iITCICEj2yv9qngdoHMvHSymEwLAiIEXasH5Z1UsICAEhIASEgBAQAkJACAgBISAEhIAQEAJCoFEEpm80N2UmBISAEBACQkAICAEhIASEgBAQAkJACAgBISAEhhQBKdKG9MOqWkJACAgBISAEhIAQEAJCQAgIASEgBISAEBACzSIgRVqzeCo3ISAEhIAQEAJCQAgIASEgBISAEBACQkAICIEhRUCKtCH9sKqWEBACQkAICAEhIASEgBAQAkJACAgBISAEhECzCEiR1iyeyk0ICAEhIASEgBAQAkJACAgBISAEhIAQEAJCYEgRkCJtSD+sqiUEhIAQEAJCQAgIASEgBISAEBACQkAICAEh0CwCUqQ1i6dyEwJCQAgIASEgBISAEBACQkAICAEhIASEgBAYUgSkSBvSD6tqCQEhIASEgBAQAkJACAgBISAEhIAQEAJCQAg0i4AUac3iqdyEgBAQAkJACAgBISAEhIAQEAJCQAgIASEgBIYUASnShvTDqlpCQAgIASEgBISAEBACQkAICAEhIASEgBAQAs0iIEVas3gqNyEgBISAEBACQkAICAEhIASEgBAQAkJACAiBIUVAirQh/bCqlhAQAkJACAgBISAEhIAQEAJCQAgIASEgBIRAswhIkdYsnspNCAgBISAEhIAQEAJCQAgIASEgBISAEBACQmBIEZAibUg/rKolBISAEBACQkAICAEhIASEgBAQAkJACAgBIdAsAlKkNYunchMCQkAICAEhIASEgBAQAkJACAgBISAEhIAQGFIEpEgb0g+ragkBISAEhIAQEAJCQAgIASEgBISAEBACQkAINIuAFGnN4qnchIAQEAJCQAgIASEgBISAEBACQkAICAEhIASGFAEp0ob0w6paQkAICAEhIASEgBAQAkJACAgBISAEhIAQEALNIiBFWrN4KjchIASEgBAQAkJACAgBISAEhIAQEAJCQAgIgSFFQIq0If2wqpYQEAJCQAgIASEgBISAEBACQkAICAEhIASEQLMISJHWLJ7KTQgIASEgBISAEBACQkAICAEhIASEgBAQAkJgSBGQIm1IP6yqJQSEgBAQAkJACAgBISAEhIAQEAJCQAgIASHQLAL/H2mL91gpHnVzAAAAAElFTkSuQmCC;" vertex="1" parent="1">
          <mxGeometry x="-389.99947368421044" y="2514.0047368421056" width="1234" height="125" as="geometry" />
        </mxCell>
        <mxCell id="N3QpHehD2lE0CQWggUtW-4" style="edgeStyle=orthogonalEdgeStyle;rounded=0;orthogonalLoop=1;jettySize=auto;html=1;entryX=0;entryY=0.5;entryDx=0;entryDy=0;startArrow=classic;startFill=1;" edge="1" parent="1" source="N3QpHehD2lE0CQWggUtW-5" target="N3QpHehD2lE0CQWggUtW-6">
          <mxGeometry relative="1" as="geometry" />
        </mxCell>
        <mxCell id="N3QpHehD2lE0CQWggUtW-5" value="Origin" style="ellipse;whiteSpace=wrap;html=1;aspect=fixed;fontStyle=1;strokeWidth=3;fontSize=20;" vertex="1" parent="1">
          <mxGeometry x="-73" y="2791" width="142" height="142" as="geometry" />
        </mxCell>
        <mxCell id="N3QpHehD2lE0CQWggUtW-6" value="Destination B" style="ellipse;whiteSpace=wrap;html=1;aspect=fixed;fontStyle=1;strokeWidth=3;fontSize=20;" vertex="1" parent="1">
          <mxGeometry x="337" y="2791" width="142" height="142" as="geometry" />
        </mxCell>
        <mxCell id="N3QpHehD2lE0CQWggUtW-7" style="edgeStyle=orthogonalEdgeStyle;rounded=0;orthogonalLoop=1;jettySize=auto;html=1;startArrow=classic;startFill=1;" edge="1" parent="1" source="N3QpHehD2lE0CQWggUtW-8" target="N3QpHehD2lE0CQWggUtW-5">
          <mxGeometry relative="1" as="geometry" />
        </mxCell>
        <mxCell id="N3QpHehD2lE0CQWggUtW-8" value="Destination A" style="ellipse;whiteSpace=wrap;html=1;aspect=fixed;fontStyle=1;strokeWidth=3;fontSize=20;" vertex="1" parent="1">
          <mxGeometry x="-700" y="2791" width="142" height="142" as="geometry" />
        </mxCell>
        <mxCell id="N3QpHehD2lE0CQWggUtW-9" value="&amp;nbsp;| Origin - Destination |" style="text;html=1;align=center;verticalAlign=middle;whiteSpace=wrap;rounded=0;fontSize=21;fontStyle=1" vertex="1" parent="1">
          <mxGeometry x="-133" y="3007" width="244" height="30" as="geometry" />
        </mxCell>
        <mxCell id="N3QpHehD2lE0CQWggUtW-10" value="| -20 | = 20&lt;div&gt;| 20 | = 20&lt;/div&gt;" style="text;html=1;align=center;verticalAlign=middle;whiteSpace=wrap;rounded=0;fontSize=24;" vertex="1" parent="1">
          <mxGeometry x="-350" y="2812" width="216" height="30" as="geometry" />
        </mxCell>
        <mxCell id="N3QpHehD2lE0CQWggUtW-11" value="12" style="text;html=1;align=center;verticalAlign=middle;whiteSpace=wrap;rounded=0;fontSize=24;" vertex="1" parent="1">
          <mxGeometry x="187" y="2812" width="60" height="30" as="geometry" />
        </mxCell>
        <mxCell id="N3QpHehD2lE0CQWggUtW-12" value="-20" style="text;html=1;align=center;verticalAlign=middle;whiteSpace=wrap;rounded=0;fontSize=24;" vertex="1" parent="1">
          <mxGeometry x="-359" y="2879" width="216" height="30" as="geometry" />
        </mxCell>
        <mxCell id="N3QpHehD2lE0CQWggUtW-13" value="-20 * -1 = 20" style="text;html=1;align=center;verticalAlign=middle;whiteSpace=wrap;rounded=0;fontSize=24;" vertex="1" parent="1">
          <mxGeometry x="-432" y="3184" width="216" height="30" as="geometry" />
        </mxCell>
        <mxCell id="N3QpHehD2lE0CQWggUtW-14" value="12" style="text;html=1;align=center;verticalAlign=middle;whiteSpace=wrap;rounded=0;fontSize=24;" vertex="1" parent="1">
          <mxGeometry x="-247" y="3184" width="60" height="30" as="geometry" />
        </mxCell>
        <mxCell id="N3QpHehD2lE0CQWggUtW-15" style="edgeStyle=orthogonalEdgeStyle;rounded=0;orthogonalLoop=1;jettySize=auto;html=1;" edge="1" parent="1" source="N3QpHehD2lE0CQWggUtW-16" target="N3QpHehD2lE0CQWggUtW-18">
          <mxGeometry relative="1" as="geometry" />
        </mxCell>
        <mxCell id="N3QpHehD2lE0CQWggUtW-16" value="Start" style="ellipse;whiteSpace=wrap;html=1;aspect=fixed;fontStyle=1;strokeWidth=3;fontSize=20;" vertex="1" parent="1">
          <mxGeometry x="-120.5" y="3235" width="97" height="97" as="geometry" />
        </mxCell>
        <mxCell id="N3QpHehD2lE0CQWggUtW-17" style="edgeStyle=orthogonalEdgeStyle;rounded=0;orthogonalLoop=1;jettySize=auto;html=1;" edge="1" parent="1" source="N3QpHehD2lE0CQWggUtW-18" target="N3QpHehD2lE0CQWggUtW-20">
          <mxGeometry relative="1" as="geometry" />
        </mxCell>
        <mxCell id="N3QpHehD2lE0CQWggUtW-18" value="Get &lt;b&gt;&lt;u&gt;a&lt;/u&gt;&lt;/b&gt; from user" style="rounded=1;whiteSpace=wrap;html=1;strokeWidth=3;fontSize=14;" vertex="1" parent="1">
          <mxGeometry x="-132" y="3393" width="120" height="60" as="geometry" />
        </mxCell>
        <mxCell id="N3QpHehD2lE0CQWggUtW-19" style="edgeStyle=orthogonalEdgeStyle;rounded=0;orthogonalLoop=1;jettySize=auto;html=1;" edge="1" parent="1" source="N3QpHehD2lE0CQWggUtW-20" target="N3QpHehD2lE0CQWggUtW-22">
          <mxGeometry relative="1" as="geometry" />
        </mxCell>
        <mxCell id="N3QpHehD2lE0CQWggUtW-20" value="Get &lt;b&gt;&lt;u&gt;b&lt;/u&gt;&lt;/b&gt;&amp;nbsp;from user" style="rounded=1;whiteSpace=wrap;html=1;strokeWidth=3;fontSize=14;" vertex="1" parent="1">
          <mxGeometry x="-132" y="3501" width="120" height="60" as="geometry" />
        </mxCell>
        <mxCell id="N3QpHehD2lE0CQWggUtW-21" style="edgeStyle=orthogonalEdgeStyle;rounded=0;orthogonalLoop=1;jettySize=auto;html=1;" edge="1" parent="1" source="N3QpHehD2lE0CQWggUtW-48" target="N3QpHehD2lE0CQWggUtW-25">
          <mxGeometry relative="1" as="geometry" />
        </mxCell>
        <mxCell id="N3QpHehD2lE0CQWggUtW-22" value="set goldenRatio = 1.618" style="rounded=1;whiteSpace=wrap;html=1;strokeWidth=3;fontSize=14;" vertex="1" parent="1">
          <mxGeometry x="-162.5" y="3623" width="181" height="60" as="geometry" />
        </mxCell>
        <mxCell id="N3QpHehD2lE0CQWggUtW-23" value="" style="edgeStyle=orthogonalEdgeStyle;rounded=0;orthogonalLoop=1;jettySize=auto;html=1;" edge="1" parent="1" source="N3QpHehD2lE0CQWggUtW-25">
          <mxGeometry relative="1" as="geometry">
            <mxPoint x="68.25000000000023" y="3945.5" as="targetPoint" />
          </mxGeometry>
        </mxCell>
        <mxCell id="N3QpHehD2lE0CQWggUtW-24" value="" style="edgeStyle=orthogonalEdgeStyle;rounded=0;orthogonalLoop=1;jettySize=auto;html=1;" edge="1" parent="1" source="N3QpHehD2lE0CQWggUtW-25" target="N3QpHehD2lE0CQWggUtW-26">
          <mxGeometry relative="1" as="geometry" />
        </mxCell>
        <mxCell id="N3QpHehD2lE0CQWggUtW-25" value="if a &amp;gt; b" style="rhombus;whiteSpace=wrap;html=1;fontSize=13;strokeWidth=3;" vertex="1" parent="1">
          <mxGeometry x="-132.5" y="3885" width="120.5" height="121" as="geometry" />
        </mxCell>
        <mxCell id="N3QpHehD2lE0CQWggUtW-26" value="" style="rounded=1;whiteSpace=wrap;html=1;fontSize=13;strokeWidth=3;" vertex="1" parent="1">
          <mxGeometry x="-132.25" y="4116.5" width="120" height="60" as="geometry" />
        </mxCell>
        <mxCell id="N3QpHehD2lE0CQWggUtW-27" value="Yes" style="text;html=1;align=center;verticalAlign=middle;whiteSpace=wrap;rounded=0;" vertex="1" parent="1">
          <mxGeometry x="-8" y="3913" width="60" height="30" as="geometry" />
        </mxCell>
        <mxCell id="N3QpHehD2lE0CQWggUtW-28" value="No" style="text;html=1;align=center;verticalAlign=middle;whiteSpace=wrap;rounded=0;" vertex="1" parent="1">
          <mxGeometry x="-83.5" y="4041" width="60" height="30" as="geometry" />
        </mxCell>
        <mxCell id="N3QpHehD2lE0CQWggUtW-29" value="" style="edgeStyle=orthogonalEdgeStyle;rounded=0;orthogonalLoop=1;jettySize=auto;html=1;" edge="1" parent="1" source="N3QpHehD2lE0CQWggUtW-31" target="N3QpHehD2lE0CQWggUtW-33">
          <mxGeometry relative="1" as="geometry" />
        </mxCell>
        <mxCell id="N3QpHehD2lE0CQWggUtW-30" style="edgeStyle=orthogonalEdgeStyle;rounded=0;orthogonalLoop=1;jettySize=auto;html=1;" edge="1" parent="1" source="N3QpHehD2lE0CQWggUtW-31" target="N3QpHehD2lE0CQWggUtW-37">
          <mxGeometry relative="1" as="geometry" />
        </mxCell>
        <mxCell id="N3QpHehD2lE0CQWggUtW-31" value="if b &amp;gt; 0" style="rhombus;whiteSpace=wrap;html=1;fontSize=13;strokeWidth=3;" vertex="1" parent="1">
          <mxGeometry x="69" y="3885" width="120.5" height="121" as="geometry" />
        </mxCell>
        <mxCell id="N3QpHehD2lE0CQWggUtW-32" value="" style="edgeStyle=orthogonalEdgeStyle;rounded=0;orthogonalLoop=1;jettySize=auto;html=1;" edge="1" parent="1" source="N3QpHehD2lE0CQWggUtW-33" target="N3QpHehD2lE0CQWggUtW-46">
          <mxGeometry relative="1" as="geometry" />
        </mxCell>
        <mxCell id="N3QpHehD2lE0CQWggUtW-33" value="ratio = a/b" style="rounded=1;whiteSpace=wrap;html=1;fontSize=13;strokeWidth=3;" vertex="1" parent="1">
          <mxGeometry x="269.75" y="3915.5" width="120" height="60" as="geometry" />
        </mxCell>
        <mxCell id="N3QpHehD2lE0CQWggUtW-34" value="Yes" style="text;html=1;align=center;verticalAlign=middle;whiteSpace=wrap;rounded=0;" vertex="1" parent="1">
          <mxGeometry x="194" y="3918" width="60" height="30" as="geometry" />
        </mxCell>
        <mxCell id="N3QpHehD2lE0CQWggUtW-35" value="" style="edgeStyle=orthogonalEdgeStyle;rounded=0;orthogonalLoop=1;jettySize=auto;html=1;" edge="1" parent="1" source="N3QpHehD2lE0CQWggUtW-37" target="N3QpHehD2lE0CQWggUtW-39">
          <mxGeometry relative="1" as="geometry" />
        </mxCell>
        <mxCell id="N3QpHehD2lE0CQWggUtW-36" value="" style="edgeStyle=orthogonalEdgeStyle;rounded=0;orthogonalLoop=1;jettySize=auto;html=1;" edge="1" parent="1" source="N3QpHehD2lE0CQWggUtW-37" target="N3QpHehD2lE0CQWggUtW-44">
          <mxGeometry relative="1" as="geometry" />
        </mxCell>
        <mxCell id="N3QpHehD2lE0CQWggUtW-37" value="if b == 0" style="rhombus;whiteSpace=wrap;html=1;fontSize=13;strokeWidth=3;" vertex="1" parent="1">
          <mxGeometry x="69" y="4063" width="120.5" height="121" as="geometry" />
        </mxCell>
        <mxCell id="N3QpHehD2lE0CQWggUtW-38" style="edgeStyle=orthogonalEdgeStyle;rounded=0;orthogonalLoop=1;jettySize=auto;html=1;" edge="1" parent="1" source="N3QpHehD2lE0CQWggUtW-39" target="N3QpHehD2lE0CQWggUtW-40">
          <mxGeometry relative="1" as="geometry" />
        </mxCell>
        <mxCell id="N3QpHehD2lE0CQWggUtW-39" value="B = 0 and can not proceed" style="rounded=1;whiteSpace=wrap;html=1;fontSize=13;strokeWidth=3;" vertex="1" parent="1">
          <mxGeometry x="69.25" y="4294.5" width="120" height="60" as="geometry" />
        </mxCell>
        <mxCell id="N3QpHehD2lE0CQWggUtW-40" value="End" style="ellipse;whiteSpace=wrap;html=1;aspect=fixed;fontStyle=1;strokeWidth=3;fontSize=20;" vertex="1" parent="1">
          <mxGeometry x="80.75" y="4426" width="97" height="97" as="geometry" />
        </mxCell>
        <mxCell id="N3QpHehD2lE0CQWggUtW-41" value="No" style="text;html=1;align=center;verticalAlign=middle;whiteSpace=wrap;rounded=0;" vertex="1" parent="1">
          <mxGeometry x="111.5" y="4016" width="60" height="30" as="geometry" />
        </mxCell>
        <mxCell id="N3QpHehD2lE0CQWggUtW-42" value="Yes" style="text;html=1;align=center;verticalAlign=middle;whiteSpace=wrap;rounded=0;" vertex="1" parent="1">
          <mxGeometry x="111.5" y="4218" width="60" height="30" as="geometry" />
        </mxCell>
        <mxCell id="N3QpHehD2lE0CQWggUtW-43" style="edgeStyle=orthogonalEdgeStyle;rounded=0;orthogonalLoop=1;jettySize=auto;html=1;entryX=1;entryY=0.5;entryDx=0;entryDy=0;exitX=0.5;exitY=1;exitDx=0;exitDy=0;" edge="1" parent="1" source="N3QpHehD2lE0CQWggUtW-44" target="N3QpHehD2lE0CQWggUtW-40">
          <mxGeometry relative="1" as="geometry" />
        </mxCell>
        <mxCell id="N3QpHehD2lE0CQWggUtW-44" value="B &amp;lt; 0 and can not proceed" style="rounded=1;whiteSpace=wrap;html=1;fontSize=13;strokeWidth=3;" vertex="1" parent="1">
          <mxGeometry x="269.75" y="4093.5" width="120" height="60" as="geometry" />
        </mxCell>
        <mxCell id="N3QpHehD2lE0CQWggUtW-45" value="" style="edgeStyle=orthogonalEdgeStyle;rounded=0;orthogonalLoop=1;jettySize=auto;html=1;" edge="1" parent="1" source="N3QpHehD2lE0CQWggUtW-46" target="N3QpHehD2lE0CQWggUtW-51">
          <mxGeometry relative="1" as="geometry" />
        </mxCell>
        <mxCell id="N3QpHehD2lE0CQWggUtW-46" value="distance = | ratio - golderRatio |" style="whiteSpace=wrap;html=1;fontSize=13;rounded=1;strokeWidth=3;" vertex="1" parent="1">
          <mxGeometry x="469.75" y="3915.5" width="202.25" height="60" as="geometry" />
        </mxCell>
        <mxCell id="N3QpHehD2lE0CQWggUtW-47" value="" style="edgeStyle=orthogonalEdgeStyle;rounded=0;orthogonalLoop=1;jettySize=auto;html=1;" edge="1" parent="1" source="N3QpHehD2lE0CQWggUtW-22" target="N3QpHehD2lE0CQWggUtW-48">
          <mxGeometry relative="1" as="geometry">
            <mxPoint x="-72" y="3683" as="sourcePoint" />
            <mxPoint x="-72" y="3885" as="targetPoint" />
          </mxGeometry>
        </mxCell>
        <mxCell id="N3QpHehD2lE0CQWggUtW-48" value="set n = 0.001" style="rounded=1;whiteSpace=wrap;html=1;strokeWidth=3;fontSize=14;" vertex="1" parent="1">
          <mxGeometry x="-163" y="3754" width="181" height="60" as="geometry" />
        </mxCell>
        <mxCell id="N3QpHehD2lE0CQWggUtW-49" style="edgeStyle=orthogonalEdgeStyle;rounded=0;orthogonalLoop=1;jettySize=auto;html=1;" edge="1" parent="1" source="N3QpHehD2lE0CQWggUtW-51" target="N3QpHehD2lE0CQWggUtW-53">
          <mxGeometry relative="1" as="geometry" />
        </mxCell>
        <mxCell id="N3QpHehD2lE0CQWggUtW-50" style="edgeStyle=orthogonalEdgeStyle;rounded=0;orthogonalLoop=1;jettySize=auto;html=1;" edge="1" parent="1" source="N3QpHehD2lE0CQWggUtW-51" target="N3QpHehD2lE0CQWggUtW-55">
          <mxGeometry relative="1" as="geometry" />
        </mxCell>
        <mxCell id="N3QpHehD2lE0CQWggUtW-51" value="if distance &amp;lt; n" style="rhombus;whiteSpace=wrap;html=1;fontSize=13;rounded=1;strokeWidth=3;" vertex="1" parent="1">
          <mxGeometry x="504.31" y="4044" width="133.13" height="109.5" as="geometry" />
        </mxCell>
        <mxCell id="N3QpHehD2lE0CQWggUtW-52" style="edgeStyle=orthogonalEdgeStyle;rounded=0;orthogonalLoop=1;jettySize=auto;html=1;entryX=1;entryY=1;entryDx=0;entryDy=0;exitX=0.5;exitY=1;exitDx=0;exitDy=0;" edge="1" parent="1" source="N3QpHehD2lE0CQWggUtW-53" target="N3QpHehD2lE0CQWggUtW-40">
          <mxGeometry relative="1" as="geometry">
            <Array as="points">
              <mxPoint x="571" y="4578" />
              <mxPoint x="164" y="4578" />
              <mxPoint x="164" y="4509" />
            </Array>
          </mxGeometry>
        </mxCell>
        <mxCell id="N3QpHehD2lE0CQWggUtW-53" value="a and b have golden ratio" style="rounded=1;whiteSpace=wrap;html=1;fontSize=13;strokeWidth=3;" vertex="1" parent="1">
          <mxGeometry x="488.81" y="4218" width="164.13" height="66" as="geometry" />
        </mxCell>
        <mxCell id="N3QpHehD2lE0CQWggUtW-54" style="edgeStyle=orthogonalEdgeStyle;rounded=0;orthogonalLoop=1;jettySize=auto;html=1;entryX=0.5;entryY=1;entryDx=0;entryDy=0;exitX=0.5;exitY=1;exitDx=0;exitDy=0;" edge="1" parent="1" source="N3QpHehD2lE0CQWggUtW-55" target="N3QpHehD2lE0CQWggUtW-40">
          <mxGeometry relative="1" as="geometry">
            <Array as="points">
              <mxPoint x="813" y="4594" />
              <mxPoint x="129" y="4594" />
            </Array>
          </mxGeometry>
        </mxCell>
        <mxCell id="N3QpHehD2lE0CQWggUtW-55" value="a and b do not have golden ratio" style="rounded=1;whiteSpace=wrap;html=1;fontSize=13;strokeWidth=3;" vertex="1" parent="1">
          <mxGeometry x="731" y="4065.75" width="164.13" height="66" as="geometry" />
        </mxCell>
      </root>
    </mxGraphModel>
  </diagram>
</mxfile>
